<svg width="48" height="48" viewBox="0 0 48 48" fill="none" xmlns="http://www.w3.org/2000/svg">
<path d="M0.799988 14.4V3.2C0.799988 2.56348 1.05284 1.95303 1.50293 1.50295C1.95302 1.05286 2.56347 0.800003 3.19999 0.800003H14.552C15.4875 0.800199 16.3933 1.12828 17.112 1.7272L19.6864 3.8728C20.4055 4.47207 21.3119 4.80018 22.248 4.8H44.8C45.4365 4.8 46.047 5.05286 46.497 5.50295C46.9471 5.95303 47.2 6.56348 47.2 7.2V14.4H0.799988Z" fill="#E58B0A"/>
<path d="M4.79993 12.8V10.4C4.79993 9.76345 5.05278 9.153 5.50287 8.70291C5.95296 8.25283 6.56341 7.99997 7.19993 7.99997H40.7999C41.4364 7.99997 42.0469 8.25283 42.497 8.70291C42.9471 9.153 43.1999 9.76345 43.1999 10.4V12.8H4.79993Z" fill="white"/>
<path d="M44.7999 11.9999H3.19993C1.87444 11.9999 0.799927 13.0745 0.799927 14.3999V39.9999C0.799927 41.3254 1.87444 42.3999 3.19993 42.3999H44.7999C46.1254 42.3999 47.1999 41.3254 47.1999 39.9999V14.3999C47.1999 13.0745 46.1254 11.9999 44.7999 11.9999Z" fill="#FFB90B"/>
</svg>
