<svg width="98" height="98" viewBox="0 0 98 98" fill="none" xmlns="http://www.w3.org/2000/svg">
<rect width="98" height="98" rx="24" fill="white" fill-opacity="0.1"/>
<g clip-path="url(#clip0_90_2863)">
<path d="M49 19C32.5117 19 19 32.5117 19 49C19 65.4883 32.5117 79 49 79C65.4883 79 79 65.4883 79 49C79 32.5117 65.4883 19 49 19Z" fill="#FE637C"/>
<path d="M79 49C79 65.4883 65.4883 79 49 79V19C65.4883 19 79 32.5117 79 49Z" fill="#FF1787"/>
<path d="M60.6721 31.8082C60.25 31.4915 59.7227 31.3509 59.1953 31.4566L49 33.4957L41.6172 34.9722C40.8084 35.148 40.2109 35.8512 40.2109 36.6949V53.0777L35.0781 55.1168C32.8633 56.0308 31.4219 58.1402 31.4219 60.566C31.4219 63.8004 34.0586 66.4019 37.2578 66.4019C40.457 66.4019 43.7266 63.9762 43.7266 60.2847V45.1676L57.7891 42.3551V49.5621L52.6563 51.6012C50.4414 52.5152 49 54.6246 49 57.0504C49 60.2847 51.6367 62.8863 54.8359 62.8863C58.0352 62.8863 61.3047 60.4605 61.3047 56.7691V33.1793C61.3047 32.6519 61.0584 32.1597 60.6721 31.8082Z" fill="#EDF5FF"/>
<path d="M61.3047 33.1793V56.7691C61.3047 60.4605 58.0354 62.8863 54.8359 62.8863C51.6365 62.8863 49 60.2848 49 57.0504C49 54.6246 50.4414 52.5152 52.6563 51.6012L57.7891 49.5621V42.3551L49 44.1129V33.4957L59.1953 31.4566C59.7227 31.3509 60.25 31.4915 60.6721 31.8078C61.0584 32.1598 61.3047 32.6519 61.3047 33.1793Z" fill="#D7E9FF"/>
</g>
<defs>
<clipPath id="clip0_90_2863">
<rect width="60" height="60" fill="white" transform="translate(19 19)"/>
</clipPath>
</defs>
</svg>
