<svg width="390" height="396" viewBox="0 0 390 396" fill="none" xmlns="http://www.w3.org/2000/svg">
<mask id="mask0_90_2767" style="mask-type:luminance" maskUnits="userSpaceOnUse" x="-3" y="0" width="396" height="396">
<path d="M393 0H-3V396H393V0Z" fill="white"/>
</mask>
<g mask="url(#mask0_90_2767)">
<path d="M417.579 188.2C431.546 190.793 434.083 220.375 430.106 234.017C421.658 249.021 411.454 259.881 399.221 271.997C311.808 358.571 186.333 405.24 63.5961 396.825C48.4118 395.789 32.9528 393.854 19.2528 387.233C2.59227 379.184 -10.5755 364.197 -16.4078 346.635C-21.4909 331.325 -20.9428 314.248 -15.0535 299.241C-12.2561 301.45 -9.13567 303.388 -5.64612 304.988C-12.3631 317.578 -8.45534 333.925 0.882339 344.712C10.2137 355.499 23.9501 361.53 37.7626 365.106C98.1233 380.74 161.759 354.854 213.53 320.1C265.307 285.347 313.879 246.272 366.709 213.145C381.933 203.6 403.605 185.612 417.579 188.2Z" fill="#F78068"/>
<path d="M481.276 218.48C481.93 224.62 480.246 230.75 478.578 236.694C458.259 270.352 431.097 299.319 400.716 324.276C350.26 365.719 291.883 398.221 228.764 414.931C165.64 431.64 97.6781 432.106 35.5576 411.981C14.0888 405.028 -7.59931 394.888 -20.7837 376.577C-38.2299 352.354 -36.5049 318.294 -22.759 291.613C-20.4947 294.4 -17.9405 296.969 -15.0536 299.241C-20.9429 314.249 -21.491 331.326 -16.4079 346.635C-10.5756 364.198 2.59214 379.185 19.2527 387.234C32.9527 393.855 48.4117 395.79 63.5959 396.827C186.333 405.242 311.808 358.572 399.22 271.997C411.453 259.882 421.657 249.021 430.105 234.018C434.765 221.16 445.11 210.478 457.818 205.419C462.076 203.729 466.864 202.644 471.209 204.111C477.06 206.085 480.616 212.333 481.276 218.48Z" fill="#F49C6A"/>
<path d="M519.204 224.538C520.767 237.294 517.611 250.167 513.328 262.287C493.408 318.595 451.673 370.777 399.6 400.026C347.526 429.282 285.421 436.831 226.158 444.286C161.842 452.387 94.9752 452.497 33.996 430.476C14.6696 423.497 -4.19507 414.136 -19.0007 399.887C-33.808 385.644 -44.2465 365.976 -44.0849 345.428C-43.9353 325.472 -34.1691 307.017 -24.5083 289.344C-23.946 290.115 -23.3623 290.869 -22.7588 291.612C-36.5047 318.293 -38.2297 352.354 -20.7835 376.576C-7.59909 394.887 14.089 405.027 35.5578 411.98C97.6783 432.106 165.64 431.64 228.765 414.93C291.883 398.221 350.26 365.718 400.717 324.275C431.097 299.318 458.258 270.351 478.578 236.693C484.479 227.957 492.213 220.458 501.129 214.829C504.097 212.954 507.552 211.228 510.979 211.974C516.204 213.12 518.555 219.226 519.204 224.538Z" fill="#EB5B26"/>
<path d="M324.749 286.505C324.227 286.16 323.679 285.784 323.428 285.212C323.219 284.737 323.247 284.196 323.279 283.679C323.602 278.411 323.924 273.143 324.247 267.875C319.028 271.835 314.107 276.187 309.537 280.883C303.065 278.001 295.536 277.394 288.46 278.934C292.047 283.164 295.468 287.535 298.711 292.035C298.935 292.346 299.167 292.681 299.185 293.064C299.207 293.511 298.933 293.913 298.672 294.277C295.742 298.357 292.811 302.437 289.881 306.517C295.372 305.262 300.863 304.008 306.354 302.753C307.005 302.604 307.696 302.458 308.327 302.675C308.77 302.827 309.134 303.143 309.484 303.453C314.31 307.728 318.909 312.26 323.256 317.023C322.832 311.513 321.778 306.052 320.119 300.78C326.248 299.935 332.223 297.986 337.672 295.055L324.749 286.505ZM400.489 249.321C396.977 245.681 392.922 242.564 388.502 240.103C388.974 234.723 388.752 229.281 387.843 223.955C383.088 227.107 378.865 231.06 375.404 235.595C368.965 232.826 362.24 232.252 355.725 233.184C358.923 237.236 362.123 241.287 365.322 245.339C361.543 249 357.994 252.898 354.704 257.005C360.538 256.539 366.341 255.686 372.061 254.454C375.098 259.453 378.309 264.345 381.686 269.12C383.007 263.706 383.924 258.193 384.427 252.642C389.836 251.824 395.199 250.715 400.489 249.321ZM261.26 329.01C261.732 323.629 261.51 318.188 260.601 312.862C255.846 316.014 251.623 319.966 248.162 324.501C241.723 321.732 234.998 321.159 228.483 322.091C231.682 326.143 234.881 330.194 238.08 334.246C234.301 337.907 230.752 341.806 227.463 345.912C233.296 345.446 239.099 344.594 244.82 343.361C247.857 348.36 251.068 353.252 254.445 358.027C255.765 352.613 256.683 347.099 257.186 341.549C262.594 340.729 267.958 339.62 273.247 338.226C269.734 334.587 265.68 331.47 261.26 329.01ZM195.941 359.01C196.267 355.282 196.114 351.514 195.485 347.826C192.192 350.009 189.267 352.746 186.87 355.887C182.41 353.969 177.753 353.572 173.241 354.218C175.457 357.024 177.672 359.83 179.888 362.636C177.27 365.171 174.813 367.871 172.535 370.715C176.575 370.392 180.594 369.802 184.556 368.949C186.659 372.411 188.883 375.799 191.222 379.107C192.136 375.356 192.771 371.539 193.121 367.695C196.866 367.127 200.581 366.359 204.244 365.393C201.81 362.872 199.002 360.713 195.941 359.01ZM130.766 375.217C131.037 372.128 130.91 369.005 130.389 365.948C127.659 367.758 125.235 370.026 123.249 372.63C119.553 371.04 115.692 370.711 111.952 371.247C113.789 373.572 115.625 375.898 117.462 378.223C115.292 380.325 113.255 382.562 111.367 384.92C114.716 384.652 118.046 384.163 121.33 383.455C123.073 386.324 124.916 389.132 126.855 391.874C127.613 388.766 128.139 385.602 128.428 382.416C131.532 381.945 134.611 381.308 137.647 380.508C135.63 378.418 133.304 376.629 130.766 375.217ZM69.8062 380.569C70.0177 378.155 69.9179 375.715 69.5108 373.328C67.3787 374.742 65.4851 376.514 63.9335 378.547C61.0467 377.306 58.0308 377.049 55.1091 377.467C56.5434 379.284 57.9777 381.101 59.4128 382.917C57.7179 384.558 56.1268 386.307 54.6521 388.148C57.2681 387.939 59.8698 387.556 62.4343 387.004C63.7957 389.246 65.2356 391.44 66.7499 393.58C67.3415 391.153 67.7533 388.681 67.9791 386.192C70.4042 385.824 72.8087 385.327 75.1807 384.702C73.6062 383.069 71.7886 381.672 69.8062 380.569ZM22.5777 369.515C22.7479 367.577 22.668 365.616 22.3401 363.697C20.627 364.833 19.1055 366.257 17.8581 367.891C15.5384 366.893 13.1148 366.686 10.7674 367.023C11.9205 368.483 13.0729 369.942 14.2252 371.403C12.8638 372.721 11.5847 374.126 10.3999 375.606C12.5018 375.438 14.5927 375.131 16.6535 374.687C17.748 376.488 18.9052 378.251 20.1217 379.971C20.5977 378.021 20.9279 376.034 21.1093 374.035C23.0576 373.739 24.9909 373.339 26.8964 372.837C25.6308 371.525 24.1704 370.402 22.5777 369.515Z" fill="#F9B232"/>
</g>
<path d="M32.8214 330.558C31.1075 328.468 29.6217 326.191 28.3997 323.781C30.8216 324.876 33.0748 326.345 35.0533 328.121C35.2299 328.279 35.4326 328.45 35.6686 328.434C35.8516 328.422 36.0052 328.299 36.147 328.183C38.2775 326.431 40.5806 324.889 43.0121 323.587C41.261 325.835 39.5091 328.083 37.7579 330.33C37.6138 330.516 37.4625 330.719 37.4586 330.955C37.4554 331.163 37.5694 331.352 37.6787 331.529C39.1748 333.934 40.6709 336.339 42.167 338.744C40.0231 337.219 37.8791 335.693 35.7352 334.168C35.4738 333.982 35.1871 333.788 34.8671 333.799C34.6002 333.807 34.3618 333.958 34.1377 334.104C32.1165 335.417 30.0953 336.731 28.075 338.044C29.6431 335.654 31.2105 333.262 32.8214 330.558Z" fill="#EB5B26"/>
<path d="M341.563 314.81C340.101 313.171 338.734 311.448 337.472 309.653C339.439 310.606 341.363 311.646 343.239 312.767C345.319 311.21 347.506 309.796 349.779 308.536C348.417 310.318 347.054 312.101 345.691 313.883C345.561 314.054 345.425 314.238 345.403 314.452C345.379 314.687 345.496 314.91 345.61 315.117C346.708 317.12 347.806 319.122 348.904 321.125C347.017 319.621 345.074 318.189 343.077 316.835C341.545 318.317 339.859 319.642 338.056 320.781C339.092 318.935 340.127 317.092 341.563 314.81Z" fill="white"/>
<path d="M322.4 37.4965C320.939 35.8578 319.572 34.1352 318.31 32.3397C320.276 33.2925 322.201 34.3316 324.076 35.4539C326.157 33.8968 328.343 32.4823 330.617 31.223C329.254 33.005 327.891 34.7878 326.529 36.5698C326.398 36.7409 326.262 36.9246 326.241 37.1393C326.217 37.3737 326.334 37.597 326.447 37.8037C327.545 39.8067 328.644 41.8089 329.741 43.8119C327.855 42.3079 325.911 40.8759 323.915 39.5216C322.382 41.0042 320.697 42.3284 318.893 43.4673C319.928 41.6228 320.964 39.7798 322.4 37.4965Z" fill="#F9B232"/>
<path d="M320.953 180.337C321.125 181.888 320.89 183.594 319.825 184.736C318.718 185.923 316.973 186.245 315.352 186.301C311.139 186.441 306.883 185.233 302.714 185.767C308.078 182.138 314.131 179.597 320.469 178.302C320.724 178.949 320.877 179.645 320.953 180.337Z" fill="#A06ACC"/>
<path d="M319.492 176.66C319.857 177.075 320.145 177.548 320.367 178.053C313.838 179.394 307.611 182.05 302.124 185.854C302.121 185.851 302.121 185.854 302.121 185.854C303.596 182.37 306.052 179.309 309.131 177.115C310.677 176.012 312.425 175.111 314.309 174.895C316.193 174.68 318.236 175.238 319.492 176.66Z" fill="#7F52A3"/>
<path d="M302.123 185.854C307.611 182.05 313.838 179.393 320.367 178.053C320.404 178.136 320.438 178.217 320.47 178.302C314.131 179.597 308.078 182.138 302.714 185.767C302.516 185.79 302.321 185.819 302.123 185.854Z" fill="white"/>
<path d="M58.9542 231.713C58.1178 233.174 57.4613 234.738 57.0019 236.357C56.9536 236.527 56.9069 236.707 56.9465 236.88C56.9908 237.075 57.1365 237.228 57.2783 237.368C59.6202 239.671 62.6877 241.132 65.8596 241.988C69.0308 242.842 72.3263 243.125 75.6044 243.332C69.0054 241.641 62.8556 237.462 58.9542 231.713ZM61.3864 225.028C66.0497 229.997 71.0345 234.664 76.299 238.992C72.3817 233.154 68.7132 227.409 65.3828 221.472C64.0507 222.658 62.7185 223.843 61.3864 225.028ZM79.2191 218.562C77.3571 218.785 75.4959 219.008 73.6339 219.231C76.8787 225.083 78.6599 231.741 78.7716 238.432C81.6014 232.327 81.8073 224.903 79.2191 218.562Z" fill="#EB5B26"/>
<path d="M74.9391 112.051C74.9827 111.403 75.0167 110.71 74.6904 110.147C73.7749 108.568 70.9672 109.27 69.9416 107.759C69.4672 107.06 69.5662 106.135 69.6771 105.298C70.043 102.542 70.3313 99.7744 70.5412 97.0016C70.5744 96.5628 70.5982 96.0908 70.3677 95.7154C69.8529 94.879 68.5841 95.1254 67.6725 94.7618C66.673 94.3627 66.1844 93.2539 65.8264 92.2385C64.9124 89.6439 64.2052 86.9773 63.7141 84.271C62.6916 87.7297 62.7693 91.5051 63.9319 94.9194C64.103 95.4208 64.3208 95.9459 64.7596 96.2421C65.2094 96.5454 65.7994 96.5462 66.2857 96.7846C66.9716 97.1204 67.3557 97.8918 67.4444 98.6498C67.5331 99.4077 67.3771 100.171 67.2464 100.923C66.9154 102.824 66.7419 104.752 66.7277 106.682C66.7229 107.296 66.7435 107.941 67.0579 108.469C67.7272 109.59 69.3341 109.648 70.3725 110.439C71.4923 111.292 71.7719 112.833 71.9612 114.228C72.5806 118.778 73.1294 123.337 73.8786 127.837C74.2335 122.576 74.5859 117.313 74.9391 112.051ZM56.8031 118.416C55.7751 118.28 54.6877 118.848 53.7246 118.466C52.9405 118.154 52.5208 117.323 52.1382 116.571C50.9685 114.271 49.5286 112.109 47.8567 110.144C47.6381 109.887 47.3823 109.616 47.0473 109.583C46.7004 109.548 46.3899 109.778 46.0565 109.878C45.1552 110.148 44.2745 109.458 43.5854 108.817L35.545 101.347C35.5965 102.515 36.3838 103.503 37.1354 104.398C38.9776 106.592 40.8332 108.774 42.7024 110.945C43.1918 111.513 43.7137 112.103 44.4186 112.357C44.8257 112.503 45.2676 112.526 45.6819 112.652C47.3656 113.163 48.0777 115.089 48.7461 116.717C49.2221 117.876 49.8042 119.019 50.6881 119.907C51.572 120.796 52.8003 121.407 54.0501 121.311C54.6212 121.268 55.1993 121.081 55.7553 121.219C56.3453 121.366 56.7841 121.847 57.1849 122.304C59.5434 124.991 61.902 127.678 64.3865 129.929C62.9815 126.86 61.4086 123.867 59.6773 120.969C58.9946 119.829 58.1202 118.589 56.8031 118.416Z" fill="#EB5B26"/>
<path d="M121.859 72.7364C120.321 74.8234 118.783 76.9111 117.246 78.998C116.713 79.7211 116.168 80.4569 115.441 80.9835C114.137 81.9292 112.31 82.0694 110.849 81.3914C109.387 80.7135 108.327 79.2657 108.056 77.6769C107.893 76.7155 108.026 75.6565 108.643 74.9018C109.511 73.8421 111.144 73.6623 112.411 74.1826C113.678 74.703 114.631 75.7817 115.395 76.919C117.698 73.9189 120 70.9188 122.302 67.9187C124.052 70.8032 125.961 73.8373 128.995 75.3128C127.963 78.5077 126.931 81.7027 125.898 84.8976C125.665 85.6175 125.423 86.3565 124.941 86.9402C124.083 87.9809 122.594 88.3317 121.26 88.129C119.665 87.8866 118.165 86.8839 117.479 85.4235C117.079 84.5721 117.011 83.4451 117.685 82.7893C117.977 82.5058 118.372 82.3482 118.769 82.2594C120.183 81.9442 121.753 82.4804 122.678 83.5948C123.853 81.4627 124.954 79.2894 125.98 77.0821C124.501 75.8466 123.163 74.4424 121.859 72.7364Z" fill="#EA5189"/>
<path d="M141.593 45.7245C138.191 45.3943 134.9 43.9774 132.326 41.7281C131.139 40.6922 130.081 39.455 129.516 37.9827C128.863 36.2831 128.923 34.3007 129.772 32.6882C130.367 31.5596 131.353 30.6369 132.514 30.1166C133.531 36.135 136.866 41.8572 141.593 45.7245Z" fill="#F29200"/>
<path d="M140.678 40.7318C140.758 42.3126 140.763 43.9806 141.598 45.3816C136.988 41.5492 133.744 35.9212 132.764 30.0105C133.184 29.8442 133.626 29.7333 134.078 29.6826C135.888 29.4791 137.799 30.3091 138.812 31.8266C139.396 32.7017 139.668 33.7456 139.89 34.7768C140.311 36.7378 140.575 38.7304 140.678 40.7318Z" fill="#EB5B26"/>
<path d="M132.765 30.0104C133.745 35.9211 136.988 41.5482 141.599 45.3815C141.67 45.5059 141.749 45.627 141.836 45.7458C141.755 45.7379 141.675 45.7324 141.593 45.7245C136.866 41.8571 133.531 36.1349 132.514 30.1157C132.595 30.0761 132.68 30.0421 132.765 30.0104Z" fill="white"/>
<path d="M240.097 110.747C245.157 102.221 250.218 93.6943 255.278 85.1684C256.904 82.4297 258.587 79.2308 257.568 76.2133C257.19 75.0958 256.45 74.0614 256.449 72.8821C256.449 71.9705 256.896 71.1263 257.331 70.3248C258.603 67.9852 259.875 65.6448 261.147 63.3045C261.271 63.0756 261.401 62.8229 261.353 62.5663C261.304 62.301 261.08 62.1085 260.867 61.943C259.421 60.8231 257.802 59.929 256.084 59.3025C254.791 61.5019 253.499 63.7013 252.207 65.8999C251.845 66.5152 251.476 67.1401 250.949 67.6225C250.141 68.3638 249.04 68.6956 247.959 68.8833C246.086 69.2096 244.057 69.2033 242.476 70.2614C241.425 70.9647 240.709 72.0569 240.022 73.1181C234.772 81.2346 229.518 89.3581 224.766 97.7755C224.029 99.0799 223.284 100.473 223.325 101.971C223.375 103.79 224.577 105.37 225.893 106.628C228.114 108.751 230.825 110.36 233.753 111.293C235.057 111.708 236.446 111.993 237.793 111.747C239.139 111.502 240.437 110.633 240.097 110.747Z" fill="#6C499B"/>
<path d="M242.221 81.412C240.34 80.3483 238.445 78.9583 237.443 77.1122C233.685 82.9429 229.968 88.8021 226.477 94.7944C230.599 100.271 237.319 103.689 244.161 103.899C247.733 97.8808 251.305 91.8624 254.877 85.844C250.441 85.128 246.132 83.624 242.221 81.412Z" fill="#A06ACC"/>
<path d="M262.209 63.9714C259.869 62.1688 257.231 60.7551 254.368 59.8419C255.23 57.9158 256.382 56.1203 257.844 54.5078C260.692 54.9783 263.354 56.4942 265.251 58.7371C264.45 60.569 263.483 62.328 262.209 63.9714Z" fill="#057C5E"/>
<path d="M262.334 53.2193C261.539 48.4174 261.497 43.4603 262.551 38.7083C263.604 33.9563 265.781 29.4141 269.082 25.8383C270.562 24.2352 272.329 22.7946 274.434 22.2251C275.055 22.0572 275.738 21.9733 276.323 22.2378C277.104 22.5911 277.515 23.4995 277.519 24.3564C277.523 25.2134 277.194 26.0339 276.846 26.8172C274.758 31.5193 271.811 35.8048 269.775 40.5299C272.422 36.5873 275.928 33.2244 279.978 30.7439C283.104 28.8296 286.627 27.4223 290.29 27.2939C290.99 27.2694 291.718 27.2987 292.338 27.6218C293.166 28.0527 293.671 28.9643 293.785 29.8909C293.898 30.8168 293.664 31.7553 293.309 32.6178C292.327 34.9977 290.439 36.9136 288.313 38.3653C286.186 39.8171 283.81 40.853 281.465 41.9174C276.369 44.2309 271.343 46.7193 266.553 49.6133C265.01 50.5439 263.457 51.5482 262.334 53.2193Z" fill="#EB5B26"/>
<path d="M311.837 221.792C311.811 221.792 311.786 221.782 311.766 221.765C310.364 220.49 309.086 219.276 307.913 218.103C306.4 218.854 304.917 219.623 303.455 220.415C303.414 220.437 303.363 220.43 303.331 220.397C303.297 220.365 303.29 220.314 303.312 220.273C304.109 218.798 304.92 217.322 305.742 215.849C304.459 214.459 303.317 213.114 302.283 211.774C302.259 211.743 302.254 211.702 302.27 211.666C302.286 211.63 302.32 211.607 302.359 211.604C303.109 211.554 303.885 211.674 304.507 211.771C305.583 211.939 306.661 212.121 307.737 212.317C308.573 210.857 309.416 209.403 310.265 207.963C310.288 207.924 310.334 207.903 310.377 207.913C310.421 207.922 310.455 207.958 310.46 208.003C310.66 209.648 310.853 211.302 311.038 212.96C312.747 213.316 314.446 213.705 316.128 214.124C316.172 214.135 316.204 214.173 316.208 214.219C316.211 214.264 316.185 214.306 316.144 214.324C314.522 215.015 312.949 215.713 311.414 216.425C311.599 218.179 311.776 219.933 311.942 221.678C311.946 221.721 311.923 221.762 311.884 221.782C311.869 221.789 311.853 221.792 311.837 221.792ZM308.112 218.004C309.212 219.104 310.405 220.238 311.707 221.425C311.55 219.793 311.386 218.156 311.213 216.517C310.162 217.006 309.13 217.501 308.112 218.004ZM305.892 216.009C305.139 217.359 304.397 218.711 303.665 220.061C305.008 219.338 306.369 218.634 307.756 217.945C307.103 217.289 306.483 216.645 305.892 216.009ZM306 215.817C306.617 216.482 307.268 217.158 307.955 217.848C309.016 217.322 310.093 216.806 311.19 216.296C311.078 215.242 310.964 214.188 310.846 213.134C309.848 212.928 308.847 212.733 307.845 212.55C307.225 213.635 306.609 214.725 306 215.817ZM311.063 213.179C311.175 214.186 311.285 215.194 311.392 216.203C312.816 215.543 314.274 214.894 315.773 214.253C314.215 213.867 312.643 213.509 311.063 213.179ZM302.572 211.804C303.557 213.07 304.64 214.344 305.849 215.654C306.436 214.604 307.028 213.554 307.625 212.509C306.575 212.319 305.524 212.142 304.473 211.978C303.917 211.891 303.235 211.782 302.572 211.804ZM307.956 212.356C308.913 212.532 309.868 212.718 310.821 212.914C310.65 211.383 310.472 209.855 310.288 208.336C309.505 209.667 308.727 211.008 307.956 212.356Z" fill="#E63271"/>
<path d="M223.35 31.2571C223.329 31.2722 223.303 31.2793 223.277 31.2761C221.393 31.0678 219.646 30.8358 218.008 30.5744C217.223 32.0713 216.474 33.5634 215.755 35.0635C215.735 35.1054 215.689 35.1292 215.643 35.1221C215.598 35.115 215.562 35.0785 215.556 35.0318C215.335 33.3702 215.125 31.6991 214.925 30.024C213.071 29.6533 211.356 29.2336 209.732 28.756C209.695 28.7449 209.666 28.7148 209.659 28.6768C209.651 28.6388 209.665 28.5992 209.695 28.5746C210.273 28.0939 210.971 27.7351 211.532 27.4484C212.502 26.9526 213.481 26.4671 214.467 25.9943C214.286 24.3216 214.116 22.6497 213.957 20.9849C213.953 20.9397 213.979 20.8962 214.019 20.8788C214.06 20.8605 214.109 20.87 214.139 20.9033C215.267 22.1174 216.394 23.3435 217.518 24.5766C219.109 23.8614 220.714 23.1779 222.322 22.5309C222.364 22.5142 222.413 22.5261 222.442 22.5602C222.471 22.5942 222.475 22.6441 222.452 22.6821C221.545 24.1941 220.681 25.683 219.857 27.1593C221.036 28.4709 222.208 29.7872 223.368 31.1019C223.396 31.1344 223.402 31.1811 223.382 31.2199C223.373 31.2349 223.362 31.2476 223.35 31.2571ZM218.111 30.378C219.646 30.6219 221.279 30.8397 223.029 31.0369C221.945 29.8078 220.85 28.5794 219.748 27.3534C219.184 28.3663 218.639 29.373 218.111 30.378ZM215.142 30.0667C215.326 31.6008 215.518 33.1318 215.718 34.6548C216.381 33.2807 217.069 31.9121 217.787 30.5396C216.873 30.3915 215.993 30.2339 215.142 30.0667ZM215.116 29.8474C216.007 30.0232 216.93 30.1887 217.891 30.3432C218.442 29.2953 219.011 28.2444 219.599 27.1878C218.889 26.3998 218.178 25.6141 217.464 24.83C216.535 25.249 215.61 25.6783 214.691 26.1186C214.827 27.3621 214.969 28.6055 215.116 29.8474ZM217.666 24.7398C218.348 25.489 219.028 26.2406 219.707 26.9938C220.473 25.6236 221.272 24.2424 222.109 22.8429C220.622 23.4456 219.139 24.0792 217.666 24.7398ZM209.985 28.611C211.527 29.0577 213.151 29.4529 214.899 29.8038C214.757 28.6087 214.621 27.412 214.49 26.2152C213.528 26.6778 212.574 27.1514 211.627 27.6353C211.125 27.8919 210.51 28.2048 209.985 28.611ZM214.668 25.8969C215.545 25.4771 216.428 25.0668 217.315 24.6669C216.278 23.528 215.237 22.3962 214.196 21.274C214.343 22.8104 214.501 24.3533 214.668 25.8969Z" fill="#F29200"/>
<path d="M60.8383 52.1951C60.8137 52.1872 60.7931 52.1698 60.7797 52.1468C59.8586 50.4916 59.0349 48.9321 58.2991 47.4455C56.6248 47.6728 54.9743 47.9279 53.3357 48.2106C53.2897 48.2185 53.2438 48.1955 53.224 48.1536C53.2034 48.1116 53.2121 48.0617 53.2462 48.03C54.473 46.888 55.7132 45.7475 56.963 44.6141C56.1916 42.8884 55.5398 41.2473 54.9878 39.6467C54.9751 39.6103 54.9838 39.5691 55.0099 39.5414C55.0361 39.5129 55.0765 39.501 55.1137 39.5113C55.8408 39.7037 56.5369 40.0657 57.0961 40.3563C58.0615 40.8593 59.0246 41.3764 59.9821 41.9063C61.2406 40.7888 62.5046 39.6815 63.7695 38.5886C63.8035 38.5585 63.8534 38.5545 63.8914 38.5775C63.9302 38.6005 63.9508 38.6456 63.9413 38.69C63.6047 40.3128 63.2586 41.9419 62.9046 43.5719C64.4094 44.4549 65.896 45.3665 67.3556 46.3027C67.3937 46.3272 67.4119 46.3732 67.4008 46.4167C67.3897 46.4611 67.3517 46.4927 67.3073 46.4959C65.5491 46.6321 63.8352 46.7913 62.1546 46.9751C61.7689 48.6961 61.3752 50.4139 60.9753 52.1207C60.965 52.1635 60.9301 52.1952 60.8874 52.2015C60.87 52.2015 60.8533 52.1999 60.8383 52.1951ZM58.5193 47.4154C59.2107 48.8086 59.9782 50.265 60.8319 51.8055C61.205 50.2096 61.5725 48.605 61.9328 46.9973C60.7812 47.1248 59.6447 47.2642 58.5193 47.4154ZM57.0533 44.8153C55.9089 45.8536 54.7731 46.8967 53.6477 47.9429C55.1517 47.6871 56.666 47.455 58.2009 47.2459C57.7915 46.4151 57.4097 45.6065 57.0533 44.8153ZM57.2172 44.6672C57.5895 45.4948 57.9902 46.3431 58.4203 47.2166C59.594 47.0582 60.7797 46.9133 61.9811 46.7802C62.2124 45.7459 62.4413 44.7107 62.6662 43.6748C61.7863 43.16 60.9008 42.6555 60.0098 42.1613C59.0753 42.9921 58.1439 43.8277 57.2172 44.6672ZM62.8571 43.7865C62.6417 44.7765 62.4231 45.7665 62.2021 46.7557C63.7623 46.5854 65.3519 46.4373 66.9771 46.3082C65.6243 45.4457 64.2486 44.6038 62.8571 43.7865ZM55.2523 39.7695C55.7814 41.2846 56.3999 42.8369 57.127 44.4652C58.0188 43.6574 58.9153 42.8527 59.815 42.0536C58.8804 41.5372 57.9411 41.0335 56.9987 40.5425C56.4981 40.2819 55.8875 39.9611 55.2523 39.7695ZM60.1769 42.0132C61.0276 42.4852 61.8734 42.9676 62.7137 43.4586C63.0408 41.9538 63.36 40.449 63.672 38.9505C62.5046 39.9603 61.338 40.9828 60.1769 42.0132Z" fill="#F49C6A"/>
<path d="M24.8245 253.213C25.63 258.157 27.6337 262.831 28.661 267.735C29.0474 269.581 29.2763 271.586 28.4542 273.284C27.4951 275.264 25.0471 276.407 22.9277 275.817C20.8083 275.228 19.2948 272.934 19.6409 270.762C19.987 268.589 22.1895 266.868 24.3762 267.111C23.1407 260.65 21.7143 254.225 20.0978 247.848C24.6487 247.192 29.4878 249.541 31.787 253.523C34.0862 257.505 33.702 262.87 30.858 266.484C31.3276 262.883 31.1906 258.996 29.2272 255.94C28.2341 254.397 26.5534 253.057 24.8245 253.213Z" fill="#05AD9E"/>
<path d="M268.533 212.498C269.55 214.843 270.421 217.251 271.139 219.704C271.61 221.313 272.018 222.991 271.8 224.654C271.582 226.317 270.611 227.977 269.041 228.567C267.471 229.157 265.383 228.275 265.077 226.626C264.873 225.528 265.467 224.401 266.32 223.677C267.172 222.954 268.249 222.561 269.308 222.205C268.472 217.65 266.338 213.452 264.229 209.329C268.568 208.028 272.93 206.802 277.311 205.653C279.806 208.618 281.824 211.984 283.267 215.581C283.957 217.303 284.523 219.13 284.399 220.981C284.276 222.832 283.342 224.72 281.684 225.552C281.189 225.801 280.632 225.95 280.081 225.893C278.946 225.775 278.032 224.748 277.849 223.622C277.666 222.496 278.12 221.332 278.864 220.467C279.608 219.603 280.615 219.005 281.656 218.537C281.151 215.823 280.118 213.208 278.63 210.882C278.495 210.67 278.333 210.443 278.088 210.382C277.916 210.339 277.735 210.388 277.565 210.437C274.619 211.279 271.671 212.121 268.533 212.498Z" fill="#E63271"/>
<path d="M237.762 259.432C244.193 293.163 246.946 327.593 245.941 361.916C236.275 358.95 226.613 355.986 216.946 353.019C219.097 335.779 221.085 318.52 222.905 301.242C224.701 284.188 226.335 266.991 224.713 249.921C229.239 253.309 232.37 255.75 237.762 259.432Z" fill="#006A54"/>
<path d="M245.941 361.916C246.946 327.593 244.193 293.163 237.762 259.432C257.26 252.682 277.534 248.169 298.055 246.002C306.997 258.518 312.115 273.311 316.634 288.013C323.874 311.584 329.874 335.539 334.602 359.739C305.113 357.585 275.099 355.466 245.938 361.994C245.937 361.969 245.937 361.941 245.941 361.916Z" fill="#05AD9E"/>
<path d="M283.211 240.375C288.389 240.919 292.732 244.289 298.055 246.002C277.533 248.169 257.26 252.682 237.762 259.432C232.37 255.75 229.239 253.309 224.713 249.921C224.71 249.87 224.707 249.817 224.701 249.766C242.083 246.802 259.462 243.836 276.84 240.872C278.947 240.513 281.086 240.151 283.211 240.375Z" fill="#057C5E"/>
<path d="M279.098 293.581C272.262 294.784 264.85 291.488 261.164 285.607C257.477 279.725 257.742 271.618 261.805 265.99C263.136 264.146 264.825 262.568 266.719 261.308C270.308 258.922 274.695 257.695 278.988 258.084C283.28 258.473 287.439 260.52 290.209 263.821C291.828 265.751 292.957 268.055 293.752 270.444C294.619 273.048 295.106 275.807 294.883 278.542C294.553 282.598 292.606 286.5 289.563 289.203C286.521 291.905 282.373 293.004 279.098 293.581Z" fill="#6C499B"/>
<path d="M284.287 287.64C278.783 290.953 271.033 290.045 266.579 285.416C262.124 280.788 261.568 272.856 265.481 267.762C267.234 265.479 269.718 263.812 272.42 262.82C277.737 260.867 284.363 261.804 288.039 266.114C291.413 270.071 291.656 275.998 289.869 280.881C288.804 283.794 286.607 286.243 284.287 287.64Z" fill="#FAC4AA"/>
<path d="M300.63 348.057C293.771 351.117 285.887 351.822 278.594 350.027C273.947 348.883 269.385 346.613 266.559 342.751C264.268 339.62 263.298 335.687 263.082 331.813C262.58 322.818 266.066 313.673 272.429 307.295C274.915 304.804 277.837 302.71 281.109 301.411C288.767 298.369 298.017 300.149 304.266 305.521C310.515 310.893 313.655 319.534 312.719 327.721C311.782 335.909 307.744 344.884 300.63 348.057Z" fill="#FAC4AA"/>
<path d="M301.545 342.288C297.564 346.594 291.163 347.728 285.31 347.372C281.527 347.142 277.596 346.313 274.7 343.868C271.514 341.179 270.06 336.931 269.549 332.794C268.593 325.068 270.661 316.774 276.049 311.156C281.438 305.538 290.329 303.163 297.426 306.362C301.476 308.187 304.701 311.645 306.538 315.689C308.376 319.733 308.869 324.326 308.261 328.726C307.523 334.059 304.675 338.902 301.545 342.288Z" fill="#6C499B"/>
<path d="M326.782 348.681C325.107 348.681 323.748 350.039 323.748 351.714C323.748 353.389 325.107 354.747 326.782 354.747C328.457 354.747 329.815 353.389 329.815 351.714C329.815 350.038 328.457 348.681 326.782 348.681ZM254.468 349.835C252.793 349.835 251.435 351.194 251.435 352.869C251.435 354.544 252.793 355.902 254.468 355.902C256.143 355.902 257.501 354.544 257.501 352.869C257.501 351.194 256.143 349.835 254.468 349.835ZM245.946 261.847C244.271 261.847 242.913 263.206 242.913 264.881C242.913 266.556 244.271 267.914 245.946 267.914C247.621 267.914 248.98 266.556 248.98 264.881C248.98 263.205 247.621 261.847 245.946 261.847ZM296.21 250.265C294.535 250.265 293.176 251.623 293.176 253.298C293.176 254.973 294.535 256.332 296.21 256.332C297.885 256.332 299.243 254.973 299.243 253.298C299.242 251.623 297.885 250.265 296.21 250.265Z" fill="black"/>
<path d="M324.204 243.106C330.162 236.765 335.855 230.176 341.264 223.36C340.947 226.181 340.631 229.003 340.315 231.824C346.827 224.566 353.043 217.044 358.943 209.281C353.364 212.826 348.434 217.285 343.534 221.721C343.319 218.925 343.586 216.118 343.852 213.327L325.868 236.819C325.907 234.46 325.945 232.1 325.984 229.74C321.576 236.422 317.669 243.433 314.308 250.697C317.664 246.531 321.024 242.129 324.23 237.617C324.22 239.447 324.212 241.277 324.204 243.106ZM378.615 244.916C370.948 246.745 363.281 248.572 355.614 250.401C355.405 250.451 355.161 250.495 354.99 250.364C354.702 250.144 354.876 249.689 355.072 249.384C356.368 247.361 357.663 245.337 358.958 243.314C351.406 246.204 344.522 250.568 337.696 254.904C338.23 252.869 338.765 250.834 339.298 248.799C333.411 253.027 327.613 257.381 321.912 261.856C326.777 259.702 331.437 257.434 336.097 255.167C335.366 257.185 334.635 259.203 333.905 261.222C340.312 257.994 346.561 254.45 352.62 250.608C351.365 253.478 350.108 256.348 348.853 259.218C358.773 254.45 368.694 249.683 378.615 244.916ZM318.531 220.647L312.965 235.485L313.166 235.56L318.731 220.723L318.531 220.647ZM329.031 192.742L328.83 192.668L319.894 217.129L320.096 217.203L329.031 192.742ZM342.159 202.386L341.97 202.285L337.472 210.664L337.661 210.766L342.159 202.386ZM323.174 253.502C330.937 247.897 338.753 242.132 346.403 236.368L346.274 236.197C338.624 241.96 330.811 247.724 323.048 253.328L323.174 253.502ZM349.492 234.429L356.614 229.953L356.5 229.771L349.378 234.248L349.492 234.429Z" fill="#EB5B26"/>
<path d="M29.5702 142.032C30.4668 141.739 31.3989 141.546 32.309 141.317C34.0569 140.876 35.8737 140.692 37.6565 140.452C49.1675 138.907 61.0261 139.535 72.1941 142.813C85.9923 146.864 98.6809 155.056 107.37 166.515C108.633 168.181 109.801 170.598 108.451 172.193C107.963 172.769 107.237 173.083 106.522 173.325C102.111 174.817 97.2957 174.277 92.6966 173.546C75.3534 170.789 58.4101 165.525 42.5582 157.968C38.5539 156.058 34.5931 153.988 31.0893 151.267C29.1513 149.763 26.5337 147.798 26.4387 145.186C26.422 144.729 26.4664 144.257 26.6818 143.855C26.9186 143.413 27.3368 143.099 27.7645 142.837C28.3363 142.49 28.9445 142.236 29.5702 142.032Z" fill="#EB5B26"/>
<path d="M79.006 135.889C78.7645 135.761 78.4651 135.853 78.3368 136.095C65.5476 160.234 53.7151 185.254 43.1696 210.457C43.0643 210.709 43.1831 210.999 43.4349 211.104C43.5086 211.135 43.5862 211.147 43.6606 211.142C43.8412 211.129 44.0075 211.017 44.0828 210.839C54.6164 185.663 66.4362 160.671 79.2111 136.558C79.3394 136.317 79.2476 136.017 79.006 135.889ZM59.4301 339.383C52.8225 297.94 47.5589 255.315 43.7858 212.685C43.7612 212.413 43.5173 212.211 43.2488 212.236C42.9763 212.261 42.7752 212.501 42.7997 212.773C46.5657 255.317 51.8159 297.859 58.4037 339.225C58.3966 339.238 58.3871 339.249 58.3807 339.262C55.5842 345.13 52.7005 351.075 49.9127 356.825L49.8858 356.881C49.7662 357.126 49.8691 357.422 50.1146 357.542C50.1954 357.581 50.2818 357.597 50.3649 357.59C50.536 357.578 50.696 357.478 50.7752 357.312L50.8021 357.258C53.4355 351.827 56.1529 346.223 58.8037 340.672L64.5037 357.806C64.5766 358.025 64.788 358.159 65.0082 358.143C65.0486 358.14 65.0898 358.133 65.1294 358.119C65.3884 358.033 65.5285 357.754 65.443 357.494L60.1239 341.506L73.0993 354.752C73.2901 354.947 73.6038 354.95 73.7986 354.759C73.9934 354.568 73.9974 354.254 73.8057 354.06L59.4301 339.383Z" fill="black"/>
<path d="M72.7913 143.602C73.0772 142.779 73.4462 141.984 73.8913 141.234C73.9745 141.094 74.0695 140.948 74.2184 140.882C74.3325 140.832 74.4632 140.837 74.5875 140.847C75.7882 140.941 76.958 141.39 77.9131 142.124C77.9686 142.166 78.028 142.216 78.0406 142.286C78.0525 142.353 78.0193 142.418 77.986 142.476C77.5734 143.221 77.1607 143.964 76.7473 144.709C76.7148 144.767 76.6792 144.829 76.6206 144.861C76.5517 144.899 76.4669 144.888 76.3901 144.874C75.0786 144.652 73.8137 144.154 72.7913 143.602Z" fill="#057C5E"/>
<path d="M92.0408 146.636C100.106 150.634 106.766 157.4 110.636 165.527C110.221 163.883 109.546 162.315 108.787 160.799C107.02 157.271 104.75 153.956 101.813 151.323C98.875 148.689 95.2381 146.76 92.0408 146.636Z" fill="#EB5B26"/>
<path d="M38.1296 151.49C56.6164 153.779 74.7033 159.27 91.3433 167.644C96.0374 170.007 100.811 172.776 103.611 177.223C104.39 178.461 104.962 180.175 104.025 181.299C103.371 182.082 102.243 182.234 101.224 182.285C96.2164 182.537 91.2213 181.691 86.3101 180.681C72.9364 177.932 59.8177 173.944 47.1774 168.784C41.1978 166.343 35.2277 163.578 30.387 159.302C29.5886 158.597 28.7951 157.807 28.483 156.789C27.8177 154.621 29.7169 152.342 31.9044 151.743C34.092 151.145 36.4038 151.276 38.1296 151.49Z" fill="#F29200"/>
<path d="M72.195 142.813C61.0278 139.534 49.1691 138.907 37.6574 140.452C35.8738 140.691 34.0578 140.875 32.3098 141.317C31.399 141.546 30.4669 141.74 29.5711 142.032C28.9454 142.236 28.3364 142.49 27.7653 142.838C27.3377 143.1 26.9195 143.414 26.6827 143.856C26.4673 144.258 26.4229 144.73 26.4395 145.186C26.4522 145.522 26.5069 145.846 26.5956 146.161C42.1726 143.25 58.3199 147.245 73.4265 152.251C86.2823 156.511 99.4477 161.902 108.181 172.253C108.214 172.293 108.248 172.333 108.282 172.373C108.341 172.316 108.398 172.258 108.452 172.194C109.802 170.599 108.634 168.181 107.371 166.517C98.6818 155.057 85.9932 146.864 72.195 142.813Z" fill="#F29200"/>
<path d="M42.3468 215.383C40.8983 215.559 39.5202 214.3 39.3008 212.857C39.0814 211.414 39.8465 209.943 40.9893 209.035C41.4384 208.679 41.9492 208.391 42.5036 208.247C44.0061 207.856 45.7136 208.663 46.4201 210.046C47.1258 211.428 46.8042 213.244 45.7081 214.344C44.6127 215.443 42.8418 215.78 42.3468 215.383Z" fill="#7F52A3"/>
<path d="M42.6439 213.826C41.8345 213.924 41.0639 213.221 40.9419 212.414C40.8191 211.608 41.2468 210.785 41.8852 210.278C42.1362 210.079 42.4214 209.919 42.7318 209.838C43.5713 209.619 44.5257 210.071 44.9201 210.843C45.3145 211.615 45.1347 212.631 44.5225 213.245C43.9095 213.859 42.9203 214.047 42.6439 213.826Z" fill="#A06ACC"/>
<path d="M65.0892 356.404C64.0287 356.479 63.2296 357.4 63.3048 358.462C63.3801 359.522 64.3012 360.321 65.3617 360.246C66.4221 360.171 67.2213 359.25 67.146 358.189C67.0716 357.128 66.1505 356.329 65.0892 356.404ZM50.0753 355.879C49.0148 355.954 48.2156 356.875 48.2909 357.936C48.3661 358.996 49.2872 359.795 50.3477 359.72C51.4082 359.645 52.2073 358.724 52.1321 357.663C52.0568 356.602 51.1357 355.803 50.0753 355.879ZM73.8147 352.789C72.7542 352.865 71.9551 353.786 72.0303 354.846C72.1055 355.907 73.0266 356.706 74.0871 356.631C75.1476 356.555 75.9467 355.634 75.8715 354.574C75.7963 353.512 74.8752 352.714 73.8147 352.789Z" fill="#E63271"/>
<path d="M76.8367 347.839C76.3552 347.662 75.8404 348.013 75.5893 348.585C73.7955 352.683 72.2542 356.891 70.9767 361.178C70.8833 361.492 70.7906 361.818 70.8397 362.142C70.8888 362.466 71.1225 362.786 71.4472 362.824C71.9327 362.882 72.2534 362.346 72.4396 361.894C74.0853 357.906 75.6582 353.889 77.1583 349.844C77.2898 349.489 77.4228 349.122 77.4078 348.744C77.3927 348.366 77.1923 347.968 76.8367 347.839ZM150.46 357.94C148.749 354.049 147.037 350.157 145.327 346.266C145.055 345.648 144.736 344.979 144.124 344.694C143.513 344.408 142.143 344.931 142.593 345.934C144.437 350.054 146.454 354.097 148.635 358.049C148.851 358.439 149.09 358.851 149.487 359.053C149.884 359.256 150.479 359.129 150.602 358.701C150.674 358.447 150.566 358.18 150.46 357.94Z" fill="#6C499B"/>
<path d="M99.3716 356.308C85.438 355.035 71.4354 349.396 62.4882 338.639C57.9682 333.205 54.8945 326.687 52.749 319.952C49.6879 310.34 48.4468 300.067 49.8946 290.084C52.3348 273.267 62.9008 257.642 77.9971 249.841C85.1742 246.133 93.1671 244.184 101.205 243.38C120.566 241.444 141.507 246.779 154.562 261.206C166.795 274.725 170.475 294.593 166.895 312.47C165.451 319.682 162.896 326.731 158.822 332.855C152.25 342.735 141.939 349.785 130.747 353.729C119.556 357.671 107.8 357.079 99.3716 356.308Z" fill="#7F52A3"/>
<path d="M47.9361 284.22L47.6628 284.15C45.0033 294.558 44.9795 305.79 47.5947 316.631C50.2099 327.471 55.3516 337.457 62.4645 345.508L62.676 345.321C48.1547 328.884 42.5061 305.471 47.9361 284.22ZM52.7419 270.543L52.4877 270.421L48.9015 277.906L49.1557 278.028L52.7419 270.543Z" fill="black"/>
<path d="M54.4183 304.16C52.4803 286.412 61.7657 268.302 76.4407 258.135C91.1164 247.968 110.435 245.481 127.719 249.957C132.756 251.261 137.693 253.142 142.009 256.049C148.212 260.227 152.904 266.394 156.134 273.139C163.251 288 163.398 305.688 158.176 321.315C155.769 328.518 152.165 335.498 146.589 340.653C140.86 345.95 133.389 349.012 125.815 350.885C109.144 355.009 90.6389 353.554 76.0851 344.436C61.5313 335.319 55.9342 318.043 54.4183 304.16Z" fill="#A06ACC"/>
<path opacity="0.33" d="M134.132 252.001C132.04 251.189 129.889 250.519 127.718 249.957C126.252 249.577 124.771 249.252 123.281 248.973C100.901 272.484 79.2874 296.724 58.4879 321.645C59.6442 324.722 61.0651 327.745 62.7901 330.613C85.3462 303.297 108.587 276.498 134.132 252.001ZM156.134 273.139C153.126 266.857 148.847 261.077 143.262 256.937C117.68 283.388 92.6659 310.388 68.2438 337.912C70.5129 340.361 73.109 342.572 76.0862 344.436C82.6875 348.572 90.103 351.126 97.7901 352.303C117.926 328.679 137.494 304.466 159.736 282.938C158.838 279.577 157.645 276.294 156.134 273.139Z" fill="white"/>
<path d="M298.766 79.6206C298.675 79.4004 298.423 79.2951 298.202 79.3869C297.982 79.4788 297.877 79.7315 297.968 79.9516L300.08 85.0386C300.149 85.205 300.309 85.3055 300.48 85.3055C300.535 85.3055 300.59 85.2953 300.645 85.2723C300.865 85.1804 300.97 84.9278 300.879 84.7076L298.766 79.6206ZM304.229 77.0648C304.169 76.8335 303.934 76.6949 303.703 76.7535C303.472 76.8129 303.332 77.0482 303.392 77.2794C303.929 79.3703 304.522 81.4786 305.156 83.5449C305.213 83.7311 305.384 83.8506 305.568 83.8506C305.61 83.8506 305.653 83.8443 305.695 83.8316C305.923 83.7619 306.051 83.5196 305.982 83.2915C305.352 81.2386 304.762 79.143 304.229 77.0648ZM311.559 80.034L310.367 75.1687C310.31 74.9367 310.076 74.7949 309.844 74.8519C309.613 74.909 309.47 75.1426 309.527 75.3747L310.765 80.426C310.835 80.7104 311.042 80.7904 311.129 80.8117C311.16 80.8197 311.193 80.8228 311.226 80.8228C311.358 80.8228 311.495 80.765 311.581 80.6684C311.697 80.5377 311.731 80.3571 311.67 80.1979C311.646 80.1354 311.607 80.0791 311.559 80.034ZM317.112 78.427C317.088 78.3653 317.05 78.3098 317.001 78.2647L315.808 73.3986C315.751 73.1666 315.517 73.0248 315.285 73.0818C315.054 73.1388 314.911 73.3725 314.968 73.6045L316.206 78.652C316.274 78.9387 316.483 79.0194 316.57 79.0416C316.602 79.0495 316.634 79.0527 316.667 79.0527C316.8 79.0527 316.937 78.9941 317.022 78.8983C317.138 78.7668 317.173 78.587 317.112 78.427Z" fill="#A06ACC"/>
<path d="M321.497 76.3099C321.041 75.6874 320.079 75.8545 319.356 76.1198C316.014 77.3474 312.985 79.2775 309.862 80.9866C306.738 82.695 303.416 84.2196 299.866 84.519C298.367 84.6457 296.569 84.6979 295.792 85.9857C295.515 86.4435 295.426 86.9884 295.348 87.519C294.922 90.3425 294.593 93.1779 294.043 96.7482C288.934 101.168 283.733 105.476 278.472 109.712C279.239 110.34 279.841 111.187 280.268 112.088C280.896 113.411 281.193 114.86 281.483 116.292C281.169 114.697 280.904 113.088 280.691 111.471C280.622 110.942 280.774 110.172 281.308 110.235C281.46 110.253 281.589 110.348 281.711 110.443C283.148 111.593 284.007 113.318 284.624 115.053C284.986 116.067 285.28 117.102 285.526 118.154C290.646 113.385 295.622 108.492 300.35 103.384C303.105 101.136 306.865 100.404 309.582 98.1136C310.965 96.9438 312.005 95.4256 312.996 93.9065C316.041 89.2361 318.791 84.3693 321.093 79.2925C321.401 78.6154 321.707 77.9121 321.718 77.1692C321.722 76.8659 321.673 76.5522 321.497 76.3099ZM275.628 111.984C275.922 112.226 276.198 112.491 276.452 112.774C277.469 113.903 278.169 115.28 278.768 116.678C278.654 114.684 277.59 112.909 276.758 111.083C276.381 111.388 276.006 111.688 275.628 111.984ZM271.133 115.542C272.77 116.231 274.243 117.312 275.358 118.698C275.113 116.963 273.989 115.563 272.851 114.188C272.28 114.641 271.707 115.093 271.133 115.542ZM271.707 128.987C270.75 127.587 269.396 126.74 267.987 126.21C266.575 125.68 265.079 125.423 263.625 125.031C263.183 124.91 262.722 124.766 262.406 124.437C262.086 124.109 261.971 123.538 262.276 123.195C262.296 123.173 262.319 123.15 262.342 123.129C262.506 122.988 262.726 122.918 262.936 122.861C265.808 122.054 268.926 122.141 271.747 123.109C271.153 121.158 269.458 119.761 267.741 118.657C267.634 118.588 267.525 118.519 267.416 118.45C265.606 119.859 263.794 121.259 261.976 122.654C252.692 129.799 243.316 136.83 234.001 143.941C225.832 150.177 217.715 156.475 209.748 162.964C207.195 165.042 204.659 167.14 202.133 169.251C200.082 170.966 198.036 172.688 195.993 174.415C197.572 173.723 199.176 173.081 200.798 172.49C201.254 172.323 201.789 172.17 202.199 172.43C202.587 172.675 202.694 173.22 202.561 173.658C202.429 174.099 202.109 174.453 201.789 174.782C199.787 176.824 197.32 178.412 194.629 179.389C197.225 179.331 199.827 179.403 202.414 179.605C204.523 179.772 206.629 180.022 208.684 180.513C209.248 180.648 209.906 180.899 210.024 181.466C210.185 182.23 209.26 182.734 208.505 182.93C204.497 183.967 200.305 184.013 196.164 184.057C200.074 184.227 203.981 184.396 207.888 184.57C208.375 184.59 208.877 184.616 209.312 184.835C209.744 185.054 210.089 185.523 210.009 186.002C209.928 186.475 209.479 186.788 209.049 187.008C205.386 188.878 200.885 187.725 196.929 188.846C199.912 188.517 202.92 188.445 205.914 188.627C206.421 188.658 206.937 188.699 207.398 188.901C207.56 188.973 207.713 189.068 207.848 189.18C208.969 188.082 210.087 186.99 211.208 185.901C212.787 184.36 214.372 182.824 215.956 181.288C225.281 172.269 234.697 163.351 244.301 154.638C247.242 151.964 250.204 149.313 253.187 146.682C259.405 141.196 265.718 135.803 271.953 130.348C271.884 129.977 271.818 129.602 271.749 129.23C271.735 129.148 271.721 129.068 271.707 128.987ZM203.159 193.443C203.266 193.449 203.372 193.455 203.479 193.461C203.891 193.058 204.303 192.651 204.716 192.251C201.771 192.74 198.777 192.914 195.795 193.086C198.249 193.204 200.704 193.325 203.159 193.443ZM197.047 197.445C193.468 197.477 189.887 197.509 186.309 197.541C186.271 197.578 186.237 197.618 186.199 197.656C184.243 199.728 182.148 201.716 179.938 203.6C176.402 206.617 172.564 209.363 168.519 211.751C162.946 215.037 156.892 217.667 150.493 218.603C147.998 218.969 145.445 219.062 142.926 218.842C142.301 218.791 141.681 218.715 141.065 218.624C137.336 221.225 133.545 223.747 129.678 226.17C135.44 232.727 141.203 239.286 146.968 245.844C150.835 242.936 154.595 239.891 158.27 236.75C161.799 233.736 165.251 230.633 168.654 227.466C175.02 221.556 181.208 215.445 187.386 209.337C190.904 205.859 194.422 202.381 197.946 198.906C198.464 198.396 198.98 197.886 199.499 197.376C198.888 197.413 198.271 197.43 197.657 197.436C197.454 197.442 197.249 197.442 197.047 197.445Z" fill="#EA5189"/>
<path d="M295.181 97.9792L133.924 231.148L134.116 231.364L295.363 98.2026L295.181 97.9792ZM296.082 99.0849L138.496 236.289L138.687 236.505L296.264 99.309L296.082 99.0849ZM298.603 102.179C246.717 148.107 195.042 195.65 144.947 243.545L145.139 243.76C195.231 195.868 246.902 148.328 298.785 102.403L298.603 102.179ZM297.346 100.637C244.737 145.774 192.417 192.643 141.785 239.989L141.976 240.204C192.605 192.862 244.922 145.995 297.528 100.861L297.346 100.637Z" fill="black"/>
<path d="M321.718 77.1686C321.722 76.8669 321.673 76.5517 321.495 76.3085C321.04 75.686 320.079 75.8539 319.355 76.12C316.014 77.3484 312.985 79.2769 309.862 80.9869C306.739 82.696 303.415 84.2198 299.867 84.5184C298.367 84.6443 296.571 84.699 295.792 85.9867C295.514 86.4453 295.426 86.9902 295.347 87.5201C294.925 90.3206 294.598 93.1369 294.054 96.6677C296.166 98.9653 298.023 101.359 299.92 103.841C300.063 103.688 300.209 103.537 300.35 103.384C303.103 101.136 306.865 100.405 309.58 98.1123C310.966 96.9425 312.006 95.4242 312.997 93.906C316.043 89.2371 318.792 84.3687 321.094 79.292C321.402 78.6156 321.706 77.9115 321.718 77.1686Z" fill="#E63271"/>
<path d="M158.27 236.75C158.99 237.647 159.705 238.551 160.417 239.456C155.959 243.79 151.354 247.967 146.609 251.981C146.174 252.35 145.678 252.739 145.108 252.71C144.538 252.678 144.082 252.24 143.69 251.825C136.473 244.267 129.736 236.251 123.527 227.843C123.322 227.561 123.106 227.258 123.086 226.91C123.054 226.391 123.455 225.958 123.829 225.596C127.131 222.417 130.632 219.447 134.306 216.709C136.455 217.646 138.735 218.274 141.066 218.623C137.337 221.225 133.546 223.746 129.678 226.169C135.441 232.727 141.203 239.285 146.969 245.843C150.837 242.937 154.596 239.891 158.27 236.75Z" fill="#A06ACC"/>
<path d="M212.019 207.312C211.446 206.972 210.728 207.032 210.066 207.104C207.107 207.418 204.147 207.732 201.188 208.049C200.782 208.092 200.335 208.124 200.004 207.882C199.673 207.639 199.572 207.196 199.491 206.793C198.978 204.165 198.462 201.534 197.946 198.907C194.423 202.381 190.905 205.86 187.387 209.338C181.209 215.446 175.02 221.557 168.655 227.467C169.416 230.76 169.151 234.293 168.551 237.655C167.805 241.868 166.566 246.009 166.284 250.279C166.252 250.743 166.238 251.227 166.431 251.651C167.085 253.077 169.249 252.608 170.537 251.714C174.254 249.144 176.619 245.053 178.417 240.909C179.772 237.797 180.89 234.547 182.788 231.734C189.323 222.053 202.981 220.09 211.277 211.87C212.547 210.611 213.558 208.222 212.019 207.312ZM177.169 183.906C179.5 182.656 181.82 181.391 184.33 180.582C184.338 180.578 184.349 180.576 184.358 180.573C186.603 179.167 188.931 177.844 191.325 176.626C192.164 172.664 192.608 168.615 192.645 164.567C192.656 163.458 192.265 161.968 191.158 162.012C190.769 162.029 190.423 162.256 190.115 162.493C185.162 166.271 184.064 173.569 179.246 177.517C176.466 179.793 172.824 180.64 169.53 182.074C166.156 183.541 163.079 185.679 160.514 188.319C161.194 188.373 161.88 188.382 162.557 188.361C165.865 188.266 169.158 187.569 172.224 186.321C173.922 185.629 175.55 184.77 177.169 183.906Z" fill="white"/>
<path d="M196.48 120.954C198.068 127.325 198.572 133.967 197.967 140.507C195.235 142.245 192.671 144.259 190.254 146.454C191.749 137.997 191.675 129.264 190.032 120.836C192.17 120.954 194.325 120.942 196.48 120.954Z" fill="#7F52A3"/>
<path d="M227.141 193.717C226.3 193.144 225.167 193.605 224.265 194.074C220.874 195.835 217.483 197.595 214.094 199.353C212.244 200.315 210.395 201.275 208.545 202.234C207.773 198.814 206.997 195.391 206.228 191.967C206.165 191.982 206.105 191.996 206.041 192.008C205.6 192.097 205.16 192.178 204.716 192.25C204.304 192.651 203.892 193.057 203.48 193.46C203.912 193.489 204.344 193.55 204.727 193.742C205.206 193.985 205.589 194.503 205.5 195.03C205.416 195.531 204.961 195.88 204.514 196.125C202.99 196.972 201.258 197.266 199.501 197.375C198.982 197.885 198.467 198.395 197.948 198.905C198.463 201.533 198.98 204.164 199.492 206.791C199.573 207.194 199.674 207.639 200.006 207.88C200.337 208.123 200.783 208.091 201.19 208.047C204.148 207.731 207.108 207.416 210.067 207.103C210.73 207.031 211.448 206.97 212.021 207.31C213.56 208.221 212.548 210.61 211.277 211.868C202.982 220.089 189.324 222.051 182.789 231.732C180.891 234.545 179.772 237.794 178.418 240.907C176.62 245.05 174.254 249.142 170.538 251.712C169.25 252.605 167.086 253.075 166.432 251.649C166.239 251.225 166.253 250.741 166.285 250.277C166.567 246.006 167.806 241.866 168.552 237.653C169.152 234.29 169.416 230.758 168.656 227.465C165.253 230.631 161.801 233.734 158.271 236.749C158.991 237.644 159.706 238.55 160.417 239.454C155.96 243.788 151.355 247.966 146.61 251.98C146.175 252.349 145.679 252.738 145.109 252.709C144.539 252.677 144.083 252.239 143.691 251.824C136.474 244.266 129.737 236.251 123.528 227.843C123.323 227.56 123.107 227.257 123.086 226.909C123.055 226.39 123.456 225.958 123.83 225.595C127.132 222.417 130.633 219.446 134.307 216.709C133.425 216.323 132.564 215.887 131.728 215.395C123.109 210.318 118.632 200.415 115.76 190.834C115.498 189.958 115.244 189.079 114.999 188.198C110.822 190.505 107.064 193.491 104.108 197.237C98.5614 204.262 96.2591 213.43 96.1838 222.38C96.0539 237.533 102.255 252.787 113.457 262.986C124.66 273.189 140.813 277.943 155.612 274.69C156.983 274.388 158.34 274.016 159.675 273.578C172.727 269.285 183.697 258.627 187.56 245.436C188.453 242.381 189.018 239.149 190.761 236.487C191.56 235.265 192.548 234.239 193.663 233.34C196.449 231.09 200.005 229.632 203.229 227.926C209.873 224.41 215.63 219.291 220.007 213.182C223.54 208.258 226.18 202.691 227.661 196.813C227.933 195.729 228.063 194.348 227.141 193.717ZM156.107 186.955C157.409 187.813 158.944 188.191 160.515 188.318C163.079 185.678 166.156 183.541 169.531 182.074C172.824 180.639 176.466 179.792 179.247 177.516C184.065 173.569 185.163 166.27 190.116 162.492C190.424 162.256 190.77 162.028 191.159 162.011C192.265 161.967 192.657 163.457 192.645 164.567C192.608 168.615 192.164 172.663 191.326 176.625C192.856 175.841 194.412 175.103 195.994 174.415C198.037 172.689 200.083 170.966 202.134 169.251C201.086 165.35 203.322 161.045 205.209 157.279C207.701 152.312 209.652 147.074 211.017 141.688C211.36 140.343 211.64 138.821 210.902 137.648C209.654 135.666 206.649 136.15 204.491 137.061C202.214 138.023 200.042 139.187 197.967 140.506C195.235 142.244 192.671 144.258 190.254 146.454C187.487 148.963 184.912 151.709 182.503 154.547C176.389 161.753 171.151 169.669 165.108 176.935C163.895 178.393 162.584 179.874 160.827 180.592C159.363 181.192 157.735 181.197 156.153 181.197C154.931 181.197 153.71 181.194 152.486 181.203C152.512 181.321 152.54 181.439 152.569 181.557C153.106 183.693 154.268 185.745 156.107 186.955Z" fill="#E63271"/>
<path d="M298.815 77.3317C297.864 77.4267 296.943 77.8172 296.214 78.4365C295.868 78.7295 295.555 79.0907 295.443 79.5295C295.331 79.9682 295.469 80.4941 295.857 80.7285C296.196 80.9337 296.63 80.8759 297.014 80.7721C297.719 80.5812 298.389 80.2565 298.976 79.8209C299.132 79.7053 299.555 79.2538 299.858 78.7335C300.023 78.45 300.152 78.1031 300.026 77.8005C299.847 77.372 299.277 77.2857 298.815 77.3317ZM304.918 74.9976C304.23 75.0032 303.532 75.0745 302.889 75.3208C302.246 75.5671 301.658 76.0035 301.328 76.6078C301.13 76.9713 301.05 77.4703 301.341 77.7641C301.474 77.8987 301.663 77.9645 301.848 78.0017C302.701 78.1759 303.57 77.8552 304.382 77.5399C304.791 77.3808 305.255 77.0038 305.628 76.5666C305.928 76.2149 306.158 75.6803 305.879 75.3113C305.669 75.0325 305.269 74.9945 304.918 74.9976ZM311.43 73.4516C311.209 73.3384 310.955 73.3043 310.707 73.2956C309.924 73.2671 309.135 73.4691 308.462 73.869C308.084 74.094 307.729 74.3997 307.581 74.8139C307.432 75.2281 307.558 75.7611 307.947 75.9655C308.217 76.1072 308.544 76.0676 308.842 76.0082C309.385 75.9005 309.917 75.7397 310.427 75.5275C310.619 75.4475 311.007 75.2424 311.348 74.9683C311.644 74.7299 311.932 74.3925 311.875 74.0171C311.838 73.7708 311.652 73.5649 311.43 73.4516ZM317.067 71.9761C316.775 71.8209 316.434 71.7892 316.103 71.7734C315.579 71.7481 315.038 71.7591 314.553 71.9595C314.12 72.1385 313.756 72.4616 313.484 72.8426C313.244 73.18 313.079 73.6647 313.337 73.9894C313.527 74.2294 313.869 74.2769 314.175 74.2801C314.945 74.288 315.717 74.1304 316.422 73.8191C316.516 73.7772 316.793 73.6489 317.052 73.4857C317.31 73.3226 317.545 73.0731 317.568 72.7681C317.595 72.4387 317.36 72.1314 317.067 71.9761Z" fill="#6C499B"/>
<path d="M301.929 87.4298C301.208 87.4298 300.624 88.0143 300.624 88.7342C300.624 89.4549 301.208 90.0394 301.929 90.0394C302.65 90.0394 303.234 89.4549 303.234 88.7342C303.234 88.0143 302.65 87.4298 301.929 87.4298ZM306.838 85.571C306.118 85.571 305.533 86.1555 305.533 86.8762C305.533 87.5969 306.118 88.1806 306.838 88.1806C307.559 88.1806 308.143 87.5961 308.143 86.8762C308.144 86.1547 307.559 85.571 306.838 85.571ZM311.563 83.1918C310.842 83.1918 310.258 83.7763 310.258 84.4962C310.258 85.2169 310.842 85.8014 311.563 85.8014C312.283 85.8014 312.868 85.2169 312.868 84.4962C312.867 83.7763 312.283 83.1918 311.563 83.1918ZM316.518 80.5822C315.797 80.5822 315.213 81.1666 315.213 81.8874C315.213 82.6081 315.798 83.1926 316.518 83.1926C317.238 83.1926 317.823 82.6081 317.823 81.8874C317.823 81.1666 317.238 80.5822 316.518 80.5822Z" fill="black"/>
<path d="M193.979 58.6675C193.979 58.7657 193.985 58.8631 193.99 58.9645C193.988 58.8663 193.985 58.7681 193.979 58.6675ZM170.268 89.1611C169.951 87.5217 168.911 86.0034 167.41 85.2827C165.837 84.5334 163.782 84.7932 162.58 86.058C162.102 86.5594 161.773 87.1874 161.534 87.8384C160.753 89.9911 160.995 92.5295 162.318 94.3962C163.644 96.2661 166.056 97.3527 168.504 97.0043C168.738 100.424 168.634 103.865 168.191 107.265C165.197 103.591 160.973 101.029 157.867 97.428C151.58 90.1352 150.871 78.5926 156.219 70.5879C157.449 68.7441 159.011 67.0492 161.01 66.0957C163.013 65.1421 165.508 65.0384 167.378 66.2279C167.482 61.0617 170.916 56.0254 175.812 54.3685C180.708 52.7117 186.698 54.8065 189.214 59.3185C189.185 58.4655 189.159 57.5896 189.439 56.7833C189.718 55.9739 190.375 55.2389 191.222 55.1241C192.107 54.9998 192.977 55.5938 193.421 56.3715C193.813 57.0487 193.936 57.8438 193.977 58.6279C193.922 54.721 197.737 51.3352 201.684 51.2805C205.741 51.2227 209.467 54.0897 211.239 57.7409C213.012 61.3912 213.081 65.6704 212.326 69.6613C211.49 74.0901 209.52 78.5332 205.851 81.1524C204.825 81.8842 203.647 82.4291 202.414 82.7546C199.241 83.6076 195.706 83.054 193.456 80.7144C192.891 81.919 191.269 82.2873 189.992 81.9103C188.715 81.5302 187.687 80.6083 186.644 79.7838C184.603 78.1705 182.223 76.8019 179.625 76.6918C176.605 76.5651 173.652 78.256 171.963 80.7603C170.329 83.1839 169.825 86.2695 170.297 89.1563L170.268 89.1611Z" fill="#057C5E"/>
<path d="M167.47 350.095C165.888 354.074 164.41 358.217 164.151 362.459C164.894 362.911 165.658 363.331 166.433 363.729C166.867 356.586 169.749 349.766 173.071 343.358C172.483 343.096 171.904 342.808 171.337 342.496C169.669 344.77 168.522 347.453 167.47 350.095ZM204.338 334.812C202.01 343.358 200.448 352.114 199.67 360.937C200.485 361.291 201.312 361.626 202.145 361.937C203.096 352.996 204.631 344.118 206.749 335.382C205.945 335.218 205.142 335.028 204.338 334.812Z" fill="#FAC4AA"/>
<path d="M171.337 342.496C169.718 341.612 168.173 340.549 166.745 339.313C165.52 340.992 164.517 342.843 163.575 344.701C161.659 348.472 159.939 352.339 158.42 356.287C158.281 356.644 158.146 357.027 158.224 357.402C158.302 357.762 158.567 358.047 158.829 358.306C159.838 359.318 160.93 360.251 162.088 361.093C162.757 361.576 163.446 362.032 164.152 362.458C164.411 358.217 165.889 354.073 167.471 350.094C168.522 347.453 169.669 344.77 171.337 342.496ZM193.601 365.262C190.498 362.32 187.862 358.883 185.821 355.126C184.222 352.178 182.972 348.818 183.375 345.528C179.86 345.592 176.339 344.834 173.071 343.358C169.749 349.766 166.867 356.586 166.433 363.729C167.723 364.392 169.052 364.988 170.392 365.548C177.345 368.443 184.836 370.357 192.356 369.959C193.419 369.901 194.667 369.676 195.125 368.717C195.416 368.107 195.275 367.363 194.938 366.775C194.602 366.19 194.092 365.729 193.601 365.262ZM200.016 333.388C196.867 340.75 194.556 348.47 193.138 356.35C193.083 356.665 193.029 356.999 193.15 357.293C193.288 357.63 193.62 357.84 193.934 358.028C195.786 359.12 197.703 360.088 199.67 360.937C200.448 352.114 202.01 343.358 204.338 334.812C202.894 334.426 201.45 333.951 200.016 333.388ZM231.281 360.427C227.944 357.849 224.42 355.416 221.755 352.146C218.125 347.692 216.344 341.791 216.866 336.074C213.511 336.285 210.126 336.065 206.749 335.383C204.631 344.119 203.096 352.997 202.145 361.938C210.192 364.969 218.96 366.156 227.587 365.92C228.932 365.883 230.313 365.807 231.546 365.269C232.246 364.963 232.92 364.459 233.136 363.728C233.517 362.436 232.348 361.249 231.281 360.427Z" fill="#7F52A3"/>
<path d="M204.338 334.812C202.894 334.426 201.451 333.95 200.016 333.389C199.854 333.325 199.696 333.262 199.534 333.195C199.413 330.796 199.566 328.381 199.984 326.012C206.628 317.748 212.864 309.236 218.18 300.117C221.77 293.956 225.003 287.217 224.868 280.089C224.732 272.914 221.197 266.258 217.255 260.262C210.68 250.255 202.716 241.173 193.662 233.341C196.449 231.091 200.004 229.633 203.228 227.927C209.872 224.411 215.629 219.291 220.007 213.183C226.446 220.066 232.374 227.48 236.759 235.81C241.574 244.955 244.461 255.3 243.737 265.609C243.296 271.859 241.556 277.936 239.704 283.92C234.126 301.937 227.371 319.724 217.376 336.039C217.206 336.053 217.037 336.065 216.866 336.073C213.512 336.284 210.126 336.065 206.75 335.382C205.945 335.218 205.142 335.028 204.338 334.812Z" fill="#058B7C"/>
<path d="M173.072 343.358C172.484 343.096 171.905 342.808 171.337 342.496C169.718 341.612 168.173 340.549 166.744 339.312C166.63 339.214 166.52 339.117 166.407 339.019C168.949 322.122 178.641 307.306 187.668 292.802C188.821 290.949 190.002 288.707 189.146 286.702C188.365 284.878 186.239 284.105 184.328 283.564C175.748 281.12 166.478 279.101 159.673 273.58C172.725 269.286 183.695 258.628 187.558 245.438C188.452 242.384 189.016 239.151 190.76 236.488C191.558 235.267 192.546 234.24 193.661 233.341C202.715 241.173 210.679 250.254 217.254 260.262C221.196 266.258 224.732 272.914 224.867 280.089C225.002 287.218 221.769 293.957 218.179 300.117C212.863 309.237 206.628 317.748 199.983 326.012C194.678 332.614 189.112 339.057 183.545 345.525C183.487 345.528 183.433 345.528 183.375 345.528C179.86 345.591 176.339 344.834 173.072 343.358Z" fill="#05AD9E"/>
<path d="M183.998 184.612C184.029 183.263 184.139 181.915 184.329 180.581C181.819 181.39 179.5 182.655 177.168 183.906C176.966 186.09 176.934 188.288 177.07 190.475C177.344 194.964 178.306 199.411 179.937 203.6C182.147 201.716 184.241 199.727 186.198 197.656C184.641 193.502 183.897 189.047 183.998 184.612ZM286.549 123.89C282.639 124.636 278.815 125.852 275.193 127.498C274.023 128.031 272.873 128.607 271.75 129.229C271.818 129.601 271.885 129.975 271.954 130.347C272.302 132.293 272.631 134.249 272.853 136.208C278.29 134.349 283.952 133.154 289.677 132.664C288.934 129.642 287.917 126.697 286.549 123.89Z" fill="#05AD9E"/>
<path d="M207.85 189.18C208.109 189.393 208.3 189.675 208.352 190.001C208.441 190.562 208.095 191.119 207.632 191.442C207.217 191.727 206.721 191.865 206.228 191.969C206.997 195.392 207.773 198.815 208.545 202.236C210.395 201.276 212.244 200.317 214.094 199.354C212.343 195.087 211.36 190.509 211.21 185.901C210.088 186.99 208.971 188.081 207.85 189.18ZM289.678 132.664C283.953 133.153 278.291 134.349 272.854 136.208C273.139 138.718 273.248 141.233 273 143.743C272.513 148.674 270.456 153.669 266.471 156.612C261.869 160.012 255.404 160.081 250.096 157.938C248.019 157.099 246.097 155.969 244.302 154.638C234.698 163.352 225.282 172.27 215.958 181.288C223.392 187.195 232.44 191.053 241.847 192.324C251.661 193.646 261.838 192.145 270.854 188.042C274.187 186.526 277.383 184.648 280.094 182.187C284.442 178.24 287.39 172.912 289.107 167.296C290.824 161.683 291.366 155.767 291.424 149.895C291.482 144.12 291.052 138.256 289.678 132.664ZM189.844 120.828C189.392 120.801 188.928 120.767 188.472 120.692C187.585 122.242 186.075 123.403 184.427 124.127C182.571 124.945 180.537 125.26 178.52 125.476C176.471 125.695 174.368 125.813 172.383 125.263C169.982 124.598 167.911 122.969 166.45 120.95C165.398 119.497 164.647 117.852 164.119 116.137C163.961 116.143 163.799 116.141 163.641 116.134C158.382 115.944 153.671 112.973 148.6 111.564C142.042 109.74 134.769 110.651 128.866 114.034C118.418 120.021 113.45 132.483 111.687 144.392C109.526 158.983 111.054 173.972 114.998 188.201C115.243 189.082 115.496 189.961 115.758 190.837C118.631 200.418 123.109 210.321 131.726 215.398C132.562 215.891 133.424 216.326 134.305 216.712C136.455 217.648 138.734 218.277 141.065 218.625C141.682 218.717 142.301 218.792 142.926 218.844C145.445 219.063 147.997 218.971 150.493 218.605C156.892 217.669 162.946 215.038 168.519 211.753C172.564 209.364 176.402 206.619 179.938 203.602C178.307 199.412 177.345 194.967 177.071 190.477C176.935 188.29 176.967 186.092 177.169 183.907C175.549 184.771 173.922 185.63 172.225 186.322C169.159 187.569 165.866 188.267 162.557 188.362C161.88 188.383 161.194 188.374 160.515 188.319C158.944 188.193 157.409 187.815 156.107 186.956C154.268 185.746 153.107 183.695 152.568 181.56C152.539 181.442 152.51 181.324 152.485 181.206C153.709 181.197 154.931 181.2 156.152 181.2C157.734 181.2 159.362 181.195 160.826 180.595C162.584 179.878 163.895 178.396 165.108 176.938C171.15 169.672 176.388 161.757 182.502 154.55C184.911 151.712 187.487 148.966 190.253 146.457C191.748 138 191.673 129.266 190.031 120.839C189.969 120.833 189.908 120.83 189.844 120.828ZM234.001 143.942C231.379 140.597 228.853 137.171 225.942 134.076C223.415 131.385 220.609 128.956 217.586 126.841C214.823 124.905 211.847 123.219 208.614 122.245C204.698 121.064 200.598 120.972 196.48 120.954C198.068 127.325 198.572 133.967 197.967 140.507C200.041 139.188 202.214 138.023 204.491 137.061C206.649 136.15 209.654 135.666 210.902 137.649C211.639 138.822 211.36 140.343 211.017 141.689C209.652 147.074 207.701 152.313 205.209 157.28C203.322 161.046 201.086 165.351 202.134 169.252C204.662 167.14 207.197 165.043 209.749 162.965C217.715 156.476 225.833 150.177 234.001 143.942Z" fill="#EB5B26"/>
<path d="M210.025 181.465C209.907 180.898 209.25 180.647 208.685 180.512C206.63 180.022 204.525 179.771 202.415 179.604C199.828 179.402 197.226 179.33 194.63 179.388C197.321 178.412 199.788 176.824 201.791 174.781C202.111 174.452 202.431 174.098 202.563 173.657C202.695 173.219 202.589 172.674 202.2 172.43C201.791 172.171 201.255 172.323 200.8 172.49C199.178 173.081 197.572 173.723 195.994 174.414C194.412 175.103 192.856 175.841 191.326 176.624C188.932 177.843 186.603 179.166 184.359 180.571C184.35 180.574 184.339 180.577 184.33 180.58C184.14 181.914 184.031 183.263 183.999 184.611C183.898 189.046 184.641 193.5 186.201 197.656C186.238 197.618 186.273 197.578 186.31 197.54C189.888 197.508 193.471 197.477 197.049 197.445C197.251 197.442 197.455 197.442 197.659 197.436C198.273 197.431 198.889 197.413 199.501 197.376C201.258 197.267 202.99 196.973 204.514 196.125C204.961 195.881 205.416 195.532 205.499 195.031C205.589 194.503 205.206 193.985 204.727 193.743C204.344 193.55 203.912 193.49 203.48 193.461C203.373 193.456 203.267 193.449 203.16 193.444C200.705 193.326 198.25 193.205 195.795 193.086C198.777 192.914 201.771 192.74 204.716 192.251C205.16 192.179 205.601 192.098 206.041 192.009C206.105 191.997 206.165 191.982 206.228 191.968C206.721 191.864 207.217 191.726 207.632 191.441C208.096 191.118 208.441 190.562 208.351 190C208.3 189.675 208.109 189.392 207.85 189.179C207.715 189.066 207.562 188.971 207.4 188.899C206.939 188.697 206.424 188.657 205.916 188.625C202.922 188.444 199.914 188.516 196.932 188.845C200.888 187.724 205.389 188.876 209.051 187.006C209.48 186.788 209.93 186.473 210.011 186C210.092 185.522 209.745 185.052 209.314 184.834C208.879 184.614 208.378 184.589 207.891 184.569C203.984 184.396 200.077 184.226 196.167 184.055C200.307 184.012 204.499 183.966 208.508 182.928C209.261 182.733 210.187 182.229 210.025 181.465ZM286.447 123.677C286.226 121.79 285.946 119.946 285.526 118.154C285.281 117.102 284.987 116.068 284.623 115.053C284.007 113.319 283.148 111.593 281.71 110.443C281.589 110.348 281.46 110.253 281.307 110.235C280.774 110.172 280.621 110.941 280.69 111.472C280.903 113.088 281.169 114.696 281.483 116.293C281.192 114.861 280.896 113.411 280.267 112.089C279.841 111.187 279.239 110.34 278.472 109.712C278.115 109.42 277.723 109.176 277.294 108.994C277.121 108.922 276.928 108.856 276.743 108.899C276.178 109.023 276.23 109.844 276.449 110.377C276.547 110.613 276.648 110.85 276.757 111.083C277.591 112.909 278.653 114.685 278.768 116.678C278.169 115.28 277.469 113.903 276.452 112.774C276.198 112.491 275.922 112.226 275.628 111.984C274.74 111.255 273.686 110.737 272.551 110.619C272.226 110.584 271.871 110.59 271.606 110.777C270.943 111.247 271.341 112.287 271.833 112.93C272.159 113.353 272.505 113.768 272.85 114.189C273.988 115.563 275.112 116.963 275.357 118.699C274.242 117.313 272.77 116.232 271.133 115.543C269.606 114.895 267.931 114.59 266.274 114.694C265.833 114.722 265.335 114.809 265.087 115.175C264.804 115.59 264.975 116.16 265.246 116.581C265.77 117.39 266.597 117.932 267.416 118.451C267.525 118.52 267.634 118.589 267.741 118.658C269.458 119.762 271.152 121.159 271.746 123.11C268.925 122.142 265.808 122.055 262.935 122.862C262.725 122.92 262.506 122.989 262.342 123.13C262.319 123.15 262.296 123.173 262.276 123.196C261.97 123.539 262.086 124.11 262.405 124.438C262.722 124.767 263.183 124.911 263.624 125.032C265.079 125.424 266.575 125.681 267.987 126.211C269.396 126.741 270.75 127.588 271.707 128.988C271.721 129.069 271.735 129.15 271.75 129.231C272.874 128.608 274.023 128.032 275.194 127.499C278.816 125.854 282.639 124.638 286.55 123.892C286.517 123.818 286.482 123.749 286.447 123.677ZM188.472 120.692C187.775 120.577 187.101 120.372 186.527 119.966C185.962 119.565 185.574 119.055 185.305 118.474C182.364 119.065 179.122 118.238 176.805 116.287C174.158 114.06 172.742 110.565 172.783 107.101C174.364 110.732 178.165 113.325 182.158 113.752C182.948 113.835 183.74 113.844 184.527 113.784C188.336 113.493 192.006 111.576 194.709 108.825C197.968 105.509 199.93 101.091 200.987 96.5615C202.039 92.0495 202.247 87.3846 202.411 82.7538C199.239 83.6067 195.703 83.0531 193.452 80.7136C192.888 81.9182 191.266 82.2865 189.989 81.9095C188.712 81.5293 187.683 80.6074 186.64 79.783C184.6 78.1697 182.22 76.8011 179.622 76.691C176.602 76.5643 173.648 78.2552 171.96 80.7595C170.326 83.183 169.822 86.2687 170.294 89.1555L170.266 89.161C169.949 87.5216 168.908 86.0033 167.407 85.2826C165.835 84.5334 163.78 84.7932 162.578 86.058C162.099 86.5593 161.771 87.1874 161.532 87.8384C160.751 89.991 160.993 92.5294 162.316 94.3962C163.642 96.2661 166.053 97.3527 168.502 97.0042C168.736 100.424 168.632 103.865 168.188 107.265C167.914 109.386 167.508 111.489 166.975 113.56C166.782 114.309 166.54 115.105 165.938 115.594C165.433 116.003 164.773 116.122 164.117 116.136C164.644 117.85 165.396 119.495 166.448 120.948C167.909 122.968 169.98 124.596 172.38 125.261C174.366 125.812 176.47 125.694 178.518 125.474C180.535 125.258 182.569 124.944 184.424 124.125C186.075 123.403 187.585 122.242 188.472 120.692Z" fill="#F49C6A"/>
<path d="M207.136 343.779C207.156 343.829 207.139 343.886 207.122 343.937C206.941 344.48 206.76 345.024 206.579 345.567C206.95 345.35 207.322 345.133 207.693 344.916C207.76 344.877 207.831 344.837 207.909 344.838C207.99 344.841 208.062 344.888 208.127 344.935C208.483 345.187 208.822 345.463 209.14 345.762C209.094 345.33 209.048 344.899 209.002 344.466C208.994 344.392 208.987 344.313 209.018 344.244C209.052 344.168 209.128 344.119 209.201 344.076C209.586 343.844 209.971 343.613 210.357 343.381C209.942 343.201 209.527 343.021 209.112 342.841C209.041 342.81 208.966 342.777 208.92 342.714C208.885 342.668 208.871 342.609 208.857 342.553C208.763 342.17 208.67 341.787 208.576 341.404C208.261 341.822 207.979 342.264 207.735 342.726C207.18 342.791 206.574 342.897 205.969 343.003L207.037 343.683C207.076 343.707 207.118 343.736 207.136 343.779ZM210.371 351.095C209.872 350.858 209.342 350.685 208.799 350.582C208.676 350.066 208.515 349.558 208.319 349.065C208.043 349.567 207.769 350.068 207.493 350.57C206.811 350.738 206.135 350.938 205.458 351.137C205.901 351.458 206.398 351.704 206.921 351.863C206.75 352.423 206.58 352.983 206.41 353.543C206.774 353.315 207.139 353.086 207.503 352.858C207.59 352.804 207.681 352.748 207.783 352.74C207.917 352.73 208.042 352.804 208.156 352.874C208.564 353.127 208.971 353.379 209.379 353.633C209.327 353.054 209.201 352.481 209.006 351.933C209.492 351.71 209.951 351.429 210.371 351.095ZM175.408 350.009C175.288 349.928 175.156 349.844 175.103 349.709C175.061 349.608 175.072 349.495 175.082 349.386C175.144 348.737 175.206 348.09 175.267 347.441C174.589 348.105 173.977 348.837 173.446 349.624C172.859 349.354 172.091 349.246 171.328 349.274C171.547 349.584 171.767 349.895 171.985 350.206C172.045 350.291 172.108 350.385 172.104 350.489C172.101 350.568 172.061 350.639 172.02 350.706C171.687 351.273 171.354 351.839 171.021 352.405C171.575 352.167 172.129 351.929 172.683 351.691C172.826 351.63 172.993 351.569 173.129 351.642C173.216 351.688 173.268 351.779 173.317 351.864C173.711 352.569 174.105 353.273 174.501 353.978C174.575 353.203 174.65 352.429 174.724 351.654C174.736 351.532 174.753 351.398 174.843 351.314C174.917 351.244 175.023 351.225 175.124 351.209C175.591 351.136 176.059 351.061 176.525 350.987C176.198 350.614 175.821 350.284 175.408 350.009ZM173.034 355.88C172.373 356.455 171.714 357.031 171.053 357.607C170.591 357.387 169.831 357.308 169.087 357.385L170.185 358.605C170.275 358.705 170.37 358.817 170.374 358.952C170.376 359.062 170.317 359.162 170.259 359.255C169.99 359.689 169.721 360.123 169.452 360.557C170.078 360.411 170.682 360.168 171.234 359.84C171.329 359.784 171.435 359.724 171.542 359.747C171.657 359.772 171.727 359.884 171.786 359.985C172.134 360.594 172.483 361.202 172.832 361.81C172.891 360.957 172.951 360.105 173.01 359.253C173.611 359.196 174.212 359.14 174.813 359.083C174.258 358.61 173.614 358.239 172.925 357.995C173.028 357.296 173.064 356.586 173.034 355.88Z" fill="#F9B232"/>
<path d="M192.05 92.858C191.67 92.8675 191.299 93.0037 191.009 93.2461C191.368 92.0122 191.829 90.8044 192.383 89.6473C192.418 89.5752 192.387 89.4896 192.316 89.4548C192.245 89.4199 192.158 89.4508 192.124 89.5221C191.445 90.939 190.905 92.4288 190.519 93.951C190.5 94.0254 190.543 94.1023 190.617 94.1244C190.691 94.1466 190.769 94.107 190.794 94.0341C190.974 93.5193 191.499 93.1463 192.045 93.1463H192.049C192.595 93.1479 193.121 93.5249 193.298 94.0428C193.553 94.7905 193.073 95.592 192.492 95.9666C191.929 96.3286 191.168 96.4695 190.23 96.3864C190.149 96.3792 190.081 96.4379 190.074 96.5171C190.067 96.5963 190.125 96.666 190.204 96.6731C190.387 96.6889 190.564 96.6976 190.734 96.6976C191.501 96.6976 192.143 96.5337 192.649 96.209C193.441 95.6989 193.837 94.7279 193.571 93.9502C193.355 93.319 192.715 92.8604 192.05 92.858ZM198.897 89.6544C198.788 89.538 198.606 89.5316 198.49 89.6401C198.105 89.9989 197.526 90.1462 197.016 90.0155C196.506 89.8848 196.069 89.477 195.904 88.9772C195.854 88.8259 195.691 88.7444 195.539 88.7943C195.388 88.8442 195.306 89.0073 195.356 89.1586C195.582 89.8405 196.177 90.3965 196.872 90.5747C197.041 90.6175 197.214 90.6388 197.389 90.6388C197.935 90.6388 198.485 90.4337 198.883 90.0631C198.998 89.953 199.005 89.7708 198.897 89.6544ZM181.922 87.6086C182.067 87.63 182.215 87.6411 182.366 87.6411C183.029 87.6411 183.75 87.4328 184.518 87.0194C184.658 86.9442 184.71 86.7691 184.635 86.6289C184.56 86.4888 184.385 86.4365 184.245 86.5117C183.415 86.9592 182.661 87.1366 182.007 87.0384C181.355 86.9402 180.608 86.4389 180.51 85.7023C180.488 85.5447 180.345 85.4354 180.186 85.4552C180.028 85.4766 179.917 85.6215 179.939 85.7791C180.076 86.8063 181.04 87.4764 181.922 87.6086ZM186.856 101.172C185.374 101.103 183.851 100.432 182.566 99.2843C181.511 98.3426 180.589 97.0738 179.744 95.4067C179.709 95.3354 179.622 95.3069 179.551 95.3433C179.48 95.379 179.452 95.4661 179.488 95.5366C180.349 97.2362 181.293 98.5319 182.375 99.4989C183.708 100.691 185.295 101.387 186.842 101.46C186.845 101.46 186.847 101.46 186.849 101.46C186.926 101.46 186.99 101.4 186.994 101.323C186.997 101.244 186.935 101.176 186.856 101.172Z" fill="black"/>
<path d="M175.485 85.4543C173.283 85.4543 171.499 87.2387 171.499 89.4405C171.499 91.6422 173.283 93.4266 175.485 93.4266C177.687 93.4266 179.471 91.6422 179.471 89.4405C179.471 87.2387 177.687 85.4543 175.485 85.4543ZM200.328 92.0176C198.126 92.0176 196.342 93.802 196.342 96.0038C196.342 98.0955 197.953 99.807 200.002 99.9733C200.394 98.8534 200.721 97.7105 200.989 96.5606C201.319 95.1484 201.565 93.7212 201.753 92.2846C201.31 92.1143 200.831 92.0176 200.328 92.0176Z" fill="#F78068"/>
<path d="M184.528 113.783C184.667 115.434 184.683 117.145 185.306 118.474C182.364 119.064 179.123 118.238 176.806 116.287C174.159 114.06 172.743 110.565 172.784 107.101C174.365 110.732 178.166 113.325 182.159 113.752C182.949 113.834 183.742 113.843 184.528 113.783Z" fill="#F78068"/>
<path d="M98.5725 198.798C98.5044 198.756 98.4157 198.777 98.3737 198.844C94.9016 204.41 92.9754 211.089 92.9493 217.652C92.9493 217.731 93.0134 217.796 93.0926 217.797C93.1718 217.797 93.2376 217.733 93.2376 217.654C93.2637 211.144 95.174 204.518 98.6184 198.997C98.6604 198.93 98.6398 198.84 98.5725 198.798ZM184.285 180.444C181.852 181.229 179.562 182.458 177.349 183.646L177.101 183.779C175.374 184.701 173.81 185.519 172.17 186.187C169.095 187.439 165.858 188.121 162.553 188.217C161.818 188.239 161.154 188.224 160.526 188.174C158.756 188.031 157.336 187.592 156.185 186.834C154.532 185.746 153.297 183.86 152.707 181.524C152.679 181.407 152.65 181.29 152.624 181.172C152.158 179.096 152.2 176.896 152.276 174.998C152.443 170.914 152.854 166.775 153.252 162.771C153.669 158.578 154.1 154.244 154.25 149.961C154.603 139.924 153.213 131.89 149.999 125.4C148.4 122.168 146.552 119.753 144.346 118.014C141.696 115.928 138.5 114.926 135.582 115.265C135.503 115.273 135.446 115.345 135.455 115.425C135.465 115.504 135.535 115.561 135.615 115.551C138.46 115.221 141.578 116.202 144.168 118.241C146.339 119.952 148.161 122.336 149.741 125.527C152.932 131.973 154.313 139.962 153.962 149.95C153.812 154.224 153.381 158.555 152.965 162.743C152.566 166.75 152.154 170.894 151.988 174.986C151.911 176.903 151.869 179.125 152.343 181.235C152.369 181.355 152.398 181.473 152.428 181.594C153.035 184.002 154.313 185.948 156.027 187.076C157.218 187.862 158.683 188.316 160.503 188.462C160.949 188.498 161.411 188.516 161.903 188.516C162.117 188.516 162.336 188.513 162.561 188.506C165.902 188.41 169.171 187.72 172.278 186.455C173.931 185.782 175.502 184.961 177.236 184.034L177.484 183.901C179.687 182.718 181.965 181.496 184.372 180.719C184.448 180.694 184.489 180.613 184.465 180.537C184.442 180.461 184.361 180.42 184.285 180.444ZM92.8051 223.714C92.8012 223.634 92.7307 223.567 92.6539 223.578C92.5747 223.582 92.5137 223.65 92.5176 223.729C92.642 226.141 93.0514 228.535 93.7334 230.845C93.7524 230.908 93.8094 230.948 93.8712 230.948C93.8846 230.948 93.8981 230.946 93.9124 230.943C93.9884 230.92 94.0319 230.84 94.0098 230.764C93.3342 228.475 92.9287 226.103 92.8051 223.714ZM294.264 136.279C294.246 136.201 294.169 136.153 294.09 136.172C294.013 136.19 293.965 136.268 293.983 136.345C295.163 141.324 295.505 146.432 295 151.529C294.992 151.608 295.05 151.678 295.129 151.686C295.134 151.686 295.139 151.687 295.144 151.687C295.217 151.687 295.279 151.632 295.287 151.557C295.796 146.429 295.451 141.288 294.264 136.279ZM294.882 156.375C294.802 156.375 294.737 156.44 294.737 156.519C294.741 158.997 294.347 161.452 293.569 163.819C293.544 163.894 293.585 163.976 293.661 164.001C293.676 164.006 293.691 164.008 293.706 164.008C293.766 164.008 293.823 163.969 293.843 163.909C294.631 161.514 295.029 159.028 295.026 156.519C295.026 156.439 294.962 156.375 294.882 156.375ZM217.375 260.183C210.789 250.16 202.843 241.094 193.756 233.232C193.696 233.18 193.605 233.186 193.552 233.246C193.5 233.307 193.507 233.398 193.567 233.45C202.634 241.294 210.563 250.341 217.134 260.341C220.594 265.603 224.582 272.603 224.723 280.091C224.861 287.354 221.43 294.253 218.055 300.044C213.337 308.137 207.56 316.36 199.872 325.921C199.822 325.983 199.832 326.074 199.894 326.124C199.921 326.145 199.952 326.155 199.984 326.155C200.026 326.155 200.068 326.137 200.097 326.101C207.793 316.528 213.579 308.295 218.305 300.189C221.699 294.364 225.152 287.42 225.012 280.085C224.869 272.524 220.856 265.478 217.375 260.183Z" fill="black"/>
<path d="M347.156 147.383C345.967 147.685 344.432 147.854 343.772 146.819C343.43 146.285 343.457 145.578 343.124 145.038C342.52 144.061 341.11 144.085 339.976 144.268C336.683 144.803 333.449 145.704 330.354 146.949C329.313 147.367 328.275 147.829 327.167 148.003C326.059 148.178 324.845 148.029 323.968 147.33C323.448 146.917 323.074 146.335 322.53 145.956C321.274 145.082 319.567 145.517 318.109 145.985C313.623 147.423 309.136 148.862 304.65 150.3C308.51 149.259 312.32 148.491 316.168 148.112C317.789 147.953 319.511 147.881 320.957 148.632C321.901 149.123 322.652 149.932 323.596 150.424C326.097 151.727 329.118 150.51 331.649 149.265C334.179 148.02 337.14 146.728 339.702 147.905C341.24 148.612 342.325 150.111 343.902 150.725C345.893 151.5 348.114 150.69 350.094 149.885C354.964 147.906 359.834 145.928 364.705 143.948C358.74 144.237 352.943 145.912 347.156 147.383ZM312.691 132.654C314.069 132.531 315.037 134.016 316.355 134.437C317.354 134.756 318.469 134.415 319.317 133.8C320.165 133.184 320.797 132.323 321.415 131.475C322.449 130.058 323.483 128.641 324.517 127.224C325.365 126.061 326.421 124.784 327.86 124.75C329.54 124.709 330.975 126.429 332.628 126.123C333.302 125.998 333.865 125.548 334.392 125.108C339.6 120.756 344.369 115.879 348.601 110.574C347.355 110.797 346.24 111.468 345.174 112.15C341.886 114.251 338.737 116.57 335.756 119.088C334.548 120.108 333.176 121.227 331.601 121.09C330.732 121.015 329.932 120.554 329.063 120.481C327.211 120.323 325.714 121.886 324.524 123.313C322.632 125.581 320.74 127.849 318.848 130.117C318.611 130.401 318.357 130.697 318.01 130.828C316.895 131.246 316.045 129.806 315.001 129.232C314.156 128.767 313.081 128.902 312.225 129.347C311.369 129.792 310.69 130.508 310.046 131.227C306.744 134.907 303.911 138.977 301.087 143.035C304.228 139.753 307.458 136.545 310.92 133.61C311.442 133.168 312.012 132.714 312.691 132.654ZM320.446 103.739C321.753 103.016 323.322 102.817 324.549 101.963C326.487 100.615 327.057 98.0623 327.67 95.7821C328.283 93.5027 329.383 90.9723 331.653 90.3197C332.457 90.0884 333.321 90.1312 334.126 89.9039C336.203 89.3186 337.361 87.1683 338.29 85.22C339.761 82.132 341.233 79.0432 342.704 75.9552C339.124 78.6171 336.467 82.3158 334.029 86.0524C333.481 86.8943 332.67 87.859 331.692 87.6285C331.139 87.4978 330.711 86.9941 330.145 86.941C329.505 86.8816 328.976 87.4123 328.576 87.9152C326.582 90.414 325.138 93.3475 324.373 96.4506C324.175 97.2576 324.015 98.0892 323.612 98.8163C323.209 99.5433 322.499 100.163 321.669 100.201C321.227 100.222 320.793 100.079 320.351 100.081C319.247 100.087 318.357 100.969 317.703 101.858C314.408 106.338 313.852 112.212 311.717 117.351C313.414 113.646 315.06 110.419 317.016 107.394C317.933 105.977 318.968 104.557 320.446 103.739Z" fill="#EB5B26"/>
</svg>
