<svg width="98" height="98" viewBox="0 0 98 98" fill="none" xmlns="http://www.w3.org/2000/svg">
<rect width="98" height="98" rx="24" fill="white" fill-opacity="0.1"/>
<g clip-path="url(#clip0_90_2865)">
<path d="M49 79C65.5685 79 79 65.5685 79 49C79 32.4315 65.5685 19 49 19C32.4315 19 19 32.4315 19 49C19 65.5685 32.4315 79 49 79Z" fill="#12C64B"/>
<path d="M59.8375 60.0898C59.5999 60.4959 59.2108 60.7911 58.7557 60.9107C58.3006 61.0302 57.8167 60.9642 57.4102 60.7273C52.7432 58.0001 47.3534 57.5637 43.6511 57.6592C41.2462 57.7207 38.8546 58.0361 36.5159 58.6001C36.0805 58.6771 35.632 58.589 35.2581 58.353C34.8843 58.1169 34.6119 57.7499 34.4942 57.3237C34.3766 56.8974 34.4222 56.4426 34.622 56.0482C34.8219 55.6538 35.1617 55.3481 35.575 55.191C38.1515 54.5506 40.7894 54.1894 43.4432 54.1137C45.9829 54.0199 48.5253 54.204 51.025 54.6626C53.9028 55.1835 56.6701 56.1935 59.2068 57.6489C59.4095 57.7668 59.5868 57.9238 59.7283 58.1107C59.8699 58.2976 59.9731 58.5107 60.0317 58.7377C60.0904 58.9647 60.1034 59.2011 60.0701 59.4332C60.0367 59.6653 59.9577 59.8885 59.8375 60.0898ZM63.1375 53.2342C62.9525 53.5519 62.6872 53.8155 62.3684 53.9985C62.0495 54.1816 61.6881 54.2777 61.3205 54.2773C60.9474 54.2779 60.5811 54.1778 60.2602 53.9876C54.7341 50.7592 48.3523 50.2376 43.9648 50.3739C41.1163 50.4459 38.2834 50.8196 35.5136 51.4887C34.9838 51.6134 34.4262 51.5279 33.9582 51.2501C33.4901 50.9723 33.1479 50.5238 33.0036 49.999C32.8592 49.4742 32.924 48.9138 33.1842 48.4358C33.4444 47.9577 33.8798 47.599 34.3989 47.4353C37.4511 46.6799 40.5761 46.257 43.7193 46.1739C46.7285 46.0581 49.7412 46.2765 52.7023 46.8251C56.1081 47.4425 59.3828 48.6394 62.3841 50.3637C62.8636 50.6454 63.2121 51.1055 63.3533 51.6434C63.4945 52.1813 63.4169 52.7533 63.1375 53.2342ZM67.4091 45.7239C67.2386 46.0168 67.0119 46.2731 66.7421 46.4781C66.4723 46.6831 66.1646 46.8329 65.8368 46.9187C65.5089 47.0045 65.1674 47.0248 64.8317 46.9783C64.496 46.9318 64.1728 46.8195 63.8807 46.6478C50.742 38.9705 33.7 43.5353 33.5398 43.5796C33.2086 43.6845 32.8596 43.7215 32.5138 43.6883C32.168 43.6551 31.8324 43.5524 31.5273 43.3863C31.2221 43.2203 30.9536 42.9944 30.7378 42.7221C30.5221 42.4498 30.3635 42.1368 30.2717 41.8017C30.1798 41.4667 30.1565 41.1166 30.2033 40.7723C30.25 40.428 30.3657 40.0968 30.5436 39.7983C30.7214 39.4999 30.9577 39.2404 31.2382 39.0355C31.5187 38.8306 31.8378 38.6844 32.1761 38.6057C35.911 37.6852 39.7342 37.1697 43.5795 37.0682C47.2693 36.9307 50.9629 37.1982 54.5943 37.866C58.7705 38.6169 62.7875 40.0766 66.4716 42.1819C66.7667 42.3519 67.0253 42.5787 67.2323 42.8492C67.4394 43.1196 67.5909 43.4284 67.678 43.7577C67.7652 44.0869 67.7863 44.4302 67.7401 44.7677C67.694 45.1051 67.5815 45.4301 67.4091 45.7239Z" fill="white"/>
</g>
<defs>
<clipPath id="clip0_90_2865">
<rect width="60" height="60" fill="white" transform="translate(19 19)"/>
</clipPath>
</defs>
</svg>
